<?xml version="1.0" encoding="UTF-8" standalone="no"?><!DOCTYPE svg PUBLIC "-//W3C//DTD SVG 1.1//EN" "http://www.w3.org/Graphics/SVG/1.1/DTD/svg11.dtd"><svg width="100%" height="100%" viewBox="0 0 1018 1280" version="1.1" xmlns="http://www.w3.org/2000/svg" xmlns:xlink="http://www.w3.org/1999/xlink" xml:space="preserve" xmlns:serif="http://www.serif.com/" style="fill-rule:evenodd;clip-rule:evenodd;stroke-linejoin:round;stroke-miterlimit:2;"><path d="M246.165,13.41c5.087,7.399 14.335,21.271 20.809,31.445l11.561,18.034l-14.797,12.485c-17.11,14.335 -18.034,16.647 -5.549,19.884c5.087,1.387 9.248,6.011 9.248,10.173c0,15.722 57.803,81.849 92.484,105.894l11.561,8.324l-16.185,-3.237c-18.497,-3.699 -49.017,-18.497 -53.178,-25.433c-4.162,-6.936 -34.219,-21.271 -52.716,-25.433l-15.26,-3.237l1.387,26.358c1.387,20.347 0,27.745 -5.549,31.445c-10.636,6.936 -39.768,0 -42.543,-10.173c-3.699,-13.873 -62.427,-20.347 -79.074,-8.324c-7.399,5.549 -7.399,8.786 -2.775,35.606c10.173,55.491 -4.624,109.131 -31.907,115.605c-17.11,4.162 -16.647,11.561 1.85,25.896c14.797,11.098 16.647,14.797 14.335,26.82c-4.624,22.196 -24.971,44.392 -51.791,56.415l-24.971,11.098l0,26.358c0,14.797 -3.237,40.693 -7.861,57.34c-7.399,30.057 -7.399,30.982 2.775,60.115c27.283,74.912 25.433,67.051 15.26,83.236l-9.248,14.797l13.41,28.208c7.399,15.722 13.41,35.606 13.41,43.93c0,26.358 16.185,38.381 92.022,67.976c36.994,14.797 67.976,26.82 68.438,27.283c0.925,0.462 -5.087,12.485 -12.948,26.82c-16.647,30.982 -40.231,94.334 -45.78,122.542c-4.624,25.896 -0.925,27.283 48.092,17.572c52.254,-10.173 86.01,-10.636 91.559,-1.387c2.775,5.087 7.861,6.936 16.647,5.087c8.786,-1.85 23.583,3.237 51.329,17.11l38.843,19.422l44.392,-7.861c24.508,-4.624 66.126,-12.948 92.947,-19.422c58.727,-13.41 78.149,-13.873 101.733,-1.85c21.734,11.098 22.659,8.786 9.248,-30.057c-5.087,-15.26 -7.861,-31.445 -6.474,-37.919c1.85,-6.474 21.734,-27.283 46.242,-48.554l43.468,-37.456l-56.878,-58.727c-60.115,-62.889 -86.935,-100.808 -87.398,-125.316c-0.462,-12.023 2.775,-18.034 15.722,-29.133c21.734,-18.497 117.917,-68.901 156.298,-80.924c37.919,-12.485 62.427,-28.67 72.138,-47.629c9.711,-18.497 6.936,-50.866 -9.711,-119.305c-15.26,-63.814 -28.208,-95.259 -48.092,-116.993l-16.185,-18.034l8.324,-21.271c19.884,-52.716 18.497,-90.172 -4.624,-135.952c-12.485,-24.971 -24.971,-33.294 -43.005,-30.057c-7.861,1.85 -17.11,-0.462 -24.508,-5.087c-53.641,-36.531 -56.415,-37.456 -67.976,-34.682c-20.809,4.624 -85.085,39.768 -103.582,56.415c-15.722,14.335 -18.959,15.26 -38.381,12.485c-41.618,-5.549 -51.329,-22.196 -22.659,-39.306c28.208,-16.647 21.734,-21.271 -36.531,-24.971c-22.196,-1.85 -33.757,-4.624 -37.919,-9.711c-2.775,-4.162 -11.561,-7.399 -18.959,-7.399c-19.422,0 -22.196,-5.087 -8.324,-15.722c22.659,-18.034 2.312,-33.757 -58.265,-44.392c-16.185,-2.775 -34.682,-6.474 -41.155,-7.861l-11.098,-2.775l8.324,13.41Z" style="fill:#2f6f5e;fill-rule:nonzero;"/><path d="M665.118,52.254c0,2.775 3.237,12.023 6.474,20.809c7.399,17.11 17.572,18.034 25.896,2.312c3.699,-6.936 1.85,-10.636 -7.399,-18.034c-13.41,-10.636 -24.971,-12.485 -24.971,-5.087Z" style="fill:#2f6f5e;fill-rule:nonzero;"/><path d="M813.093,910.045c-29.133,24.046 -39.306,27.745 -57.34,21.271c-25.433,-9.711 -36.069,-6.011 -75.837,24.971c-41.618,32.832 -43.468,36.994 -30.982,71.675c8.324,24.046 8.786,44.855 1.387,47.629c-3.237,0.925 -13.41,-0.925 -22.196,-4.624c-22.196,-9.248 -48.092,-8.324 -93.409,2.775c-21.271,5.087 -56.878,12.948 -79.999,16.647c-22.659,4.162 -47.629,8.786 -54.566,10.173c-7.861,1.387 -20.347,-0.925 -30.982,-5.549c-25.433,-11.561 -32.369,-7.399 -32.369,18.497c0,16.647 2.775,24.046 12.023,33.294c12.023,12.023 14.335,12.023 49.017,3.699c9.248,-2.312 15.722,-0.462 24.971,6.474c15.26,12.023 24.971,12.023 44.392,0.462c15.26,-8.786 73.063,-24.046 95.721,-24.971c8.324,-0.462 15.26,4.624 25.433,18.959c17.11,23.121 38.843,34.219 88.322,45.317c55.028,12.023 105.894,11.098 166.934,-3.237c94.334,-22.196 121.617,-42.08 122.542,-89.247c0.925,-37.919 4.162,-45.317 29.133,-56.878l22.659,-11.098l-2.775,-28.208c-3.699,-36.531 -15.26,-75.375 -25.896,-86.01c-5.087,-5.087 -18.497,-9.248 -35.606,-11.098c-14.797,-1.387 -39.768,-6.936 -54.566,-12.485c-42.543,-14.797 -56.415,-12.948 -86.01,11.561Z" style="fill:#2f6f5e;fill-rule:nonzero;"/><path d="M228.13,1070.042c-52.716,6.474 -86.473,14.335 -108.669,24.971c-26.358,13.41 -66.126,55.028 -73.525,77.687c-3.699,11.098 -10.636,19.884 -19.422,24.046c-23.583,12.485 -14.797,22.659 18.959,23.121c18.034,0 21.734,1.85 30.057,15.26c29.133,47.167 26.358,44.855 51.791,44.855c29.133,-0.462 45.78,-8.786 51.791,-25.896c4.624,-12.948 29.133,-31.907 41.155,-31.907c3.237,0 8.786,6.936 12.485,15.26c3.699,8.786 9.711,18.034 13.41,21.271c10.636,8.786 27.283,-3.237 44.855,-31.907c7.861,-12.948 16.647,-23.121 19.422,-23.121c3.237,0 10.636,4.162 17.11,9.248c6.474,5.087 13.873,9.248 16.185,9.248c6.936,0 37.456,-25.896 48.554,-41.618l9.711,-13.873l-20.809,2.775c-19.422,2.775 -22.196,1.85 -36.994,-12.948c-15.26,-15.26 -25.896,-41.155 -25.896,-62.889c0,-6.011 -2.312,-14.797 -4.624,-19.884c-5.549,-9.711 -26.358,-10.636 -85.548,-3.699Z" style="fill:#2f6f5e;fill-rule:nonzero;"/></svg>