<?xml version="1.0" encoding="UTF-8" standalone="no"?><!DOCTYPE svg PUBLIC "-//W3C//DTD SVG 1.1//EN" "http://www.w3.org/Graphics/SVG/1.1/DTD/svg11.dtd"><svg width="100%" height="100%" viewBox="0 0 260 260" version="1.1" xmlns="http://www.w3.org/2000/svg" xmlns:xlink="http://www.w3.org/1999/xlink" xml:space="preserve" xmlns:serif="http://www.serif.com/" style="fill-rule:evenodd;clip-rule:evenodd;stroke-linejoin:round;stroke-miterlimit:2;"><g><path d="M101.648,8.701c0.308,0.765 0.193,0.823 0.726,1.455c0.613,0.727 0.53,0.803 0.642,3.096c0.111,2.28 -1.127,2.424 -0.828,3.054c0.302,0.639 1.996,-0.861 3.174,1.132c0.261,0.442 0.135,0.604 0.642,0.711c0.207,0.044 0.476,-0.701 1.714,-0.191c1.095,0.451 2.535,1.115 2.754,1.216c2.27,1.047 1.951,1.944 3.635,1.843c1.485,-0.09 2.162,-1.929 3.135,-1.953c0.146,-0.004 0.918,0.304 1.445,0.132c0.491,-0.16 0.078,-0.585 0.043,-0.621c-0.614,-0.631 -0.859,-0.676 -0.516,-2.16c0.392,-1.693 0.888,-1.547 2.595,-1.216c1.553,0.302 1.623,0.881 2.043,2.003c0.121,0.315 0.842,1.612 0.391,2.044c-0.584,0.56 -2.224,-0.591 -2.678,0.378c-0.225,0.482 -0.169,0.498 -0.426,0.954c-0.956,1.695 1.007,3.276 -0.767,5.133c-2.372,2.484 -2.746,2.578 -3.06,2.657c-0.027,0.007 -0.955,-0.069 -1.213,0.248c-0.478,0.586 0.313,1.137 0.395,1.194c1.036,0.722 1.071,1.091 2.234,0.59c2.316,-0.997 2.623,-1.481 4.486,-0.583c0.801,0.386 1.038,1.208 1.342,1.216c0.162,0.004 0.23,-0.293 0.393,-0.289c0.434,-0.892 0.422,-1.02 0.956,-1.277c1.118,-0.538 1.062,-0.632 1.479,-1.295c1.001,-1.592 1.415,-1.532 1.951,-2.051c1.138,-1.103 1.29,-0.865 2.847,-1.128c3.669,-0.619 4.954,-0.621 5.66,-1.538c0.352,-0.456 0.178,-0.621 1.531,-1.649c1.003,-0.762 1.471,-1.733 2.404,-3.044c0.079,-0.111 0.085,-0.093 0.161,-0.205c0.183,-0.269 0.18,-0.26 0.368,-0.532c1.373,-2.533 1.924,-2.025 3.36,-1.797c1.442,0.228 3.834,-0.186 4.853,0.32c0.793,0.394 1.221,-0.061 1.409,-0.021c0.495,0.105 0.379,0.255 0.568,0.721c0.191,0.471 1.011,1.067 1.195,1.148c0.152,0.067 0.331,0.06 0.483,0.127c0.062,0.338 0.124,0.677 0.187,1.015c0.112,0.141 0.11,0.351 0.222,0.491c0.065,0.082 0.201,-0.096 1.044,0.785c0.51,0.533 0.521,0.653 1.253,0.532c0.349,-0.058 1.019,-0.43 1.208,-0.664c0.068,-0.084 0.122,-0.324 0.594,-0.68c0.074,-0.056 2.016,-1.138 2.32,-1.237c0.631,-0.207 0.625,0.003 1.267,0.187c0.14,0.083 0.309,0.109 0.45,0.192c0.167,0.099 0.272,0.352 0.467,0.35c0,0 0.97,-0.862 1.054,-0.936c0.136,0.479 0.221,0.472 0.122,0.957c-0.053,0.258 -0.307,1.257 -0.334,1.366c-0.272,1.07 -1.688,0.361 -2.035,-0.12c-0.257,-0.357 -0.414,-1.203 -1.593,-0.461c-0.904,0.569 -1.248,0.427 -1.246,1.487c0.001,0.443 -0.052,0.429 -0.105,0.871c-0.187,0.08 -0.221,0.374 -0.408,0.454c-0.144,0.062 -0.307,-0.08 -0.464,-0.082c-0.464,-0.007 -0.501,0.111 -0.451,0.576c0.053,0.494 0.281,0.262 1.014,0.294c0.149,0.007 0.288,0.09 0.437,0.096c0.463,0.869 0.356,1.282 1.321,1.077c0.257,-0.055 0.223,-0.163 3.139,-0.976c1.102,-0.308 1.699,-1.232 2.256,-0.076c0.893,1.853 2.274,1.951 3.928,3.272c1.352,1.08 3.152,2.055 3.074,3.003c-0.009,0.112 -0.053,0.101 -0.354,1.362c-0.291,1.221 -1.949,0.454 -2.964,1.089c-0.103,0.064 -0.049,0.179 -1.169,0.523c-0.144,0.044 -0.374,-0.024 -0.438,0.113c-0.036,0.078 -0.205,0.441 0.663,0.847c3.182,1.484 3.742,0.531 4.418,0.58c0.853,0.062 0.77,1.173 0.933,1.797c0.361,1.379 0.828,1.819 0.873,2.702c0.073,1.464 0.04,1.489 0.713,2.782c0.526,1.009 1.073,3.205 1.145,3.49c0.601,2.408 1.597,2.523 0.49,4.143c-0.847,1.24 -0.124,1.571 -0.305,3.041c-0.385,3.128 -1.324,2.646 -3.133,4.324c-0.2,0.186 -0.663,0.153 -0.269,2.884c0.158,1.098 0.72,0.678 2.144,1.921c2.245,1.959 2.126,2.112 4.025,3.237c0.468,0.277 2.343,1.64 2.324,2.925c-0.005,0.337 -0.154,0.508 -0.017,1.363c0.151,0.942 0.073,0.95 -0.32,1.819c-0.279,0.617 -0.885,1.095 -0.318,2.584c0.834,2.19 1.164,1.983 1.646,2.202c1.021,0.464 1.327,0.523 1.191,1.902c-0.156,1.58 -0.381,1.887 0.187,2.646c0.68,0.909 0.856,0.957 0.491,2.783c-0.533,2.671 -0.258,2.812 -1.31,4.144c-0.583,0.738 -0.652,0.868 -0.112,1.637c0.818,1.162 0.409,1.374 1.006,2.136c0.062,0.079 0.07,0.06 0.928,0.85c0.13,0.12 0.587,0.379 0.627,1.545c0.06,1.747 -1.094,2.248 0.189,2.943c0.317,0.172 2.765,1.049 3.087,1.511c0.565,0.813 0.511,1.566 1.477,3.548c0.772,1.583 0.892,1.625 0.562,3.194c-0.573,2.723 -0.043,3.622 -1.287,6.73c-1.917,4.786 -1.793,5.049 -2.564,5.174c-0.358,0.058 -3.22,-0.388 -3.53,-1.132c-0.179,-0.429 0.083,-0.909 -0.462,-1.402c-0.864,-0.783 -0.246,-1.01 -0.409,-1.73c-0.248,-1.097 -2.116,-0.56 -2.826,-0.824c-0.309,-0.115 -0.589,-0.301 -0.903,-0.403c-0.063,-0.02 -0.705,-0.23 -0.739,0.365c-0.017,0.307 0.015,0.307 0.244,0.498c0.163,0.136 0.346,0.25 0.495,0.402c0.088,0.09 0.124,0.222 0.206,0.317c0.411,0.473 1.35,0.646 1.278,1.481c-0.097,1.127 -2.148,0.96 -2.73,1.436c-0.358,0.293 -0.281,0.365 -0.644,0.643c-0.374,0.287 -0.882,0.392 -3.502,1.458c-1.103,0.449 -1.403,0.261 -1.683,1.414c-0.502,2.062 -1.756,1.405 -4.13,1.515c-0.155,0.007 -1.415,0.066 -1.805,0.71c-0.272,0.449 -1.114,2.76 -1.765,2.845c-0.373,0.049 -0.784,-0.254 -0.842,-0.296c-0.056,-0.041 -0.56,-0.412 -0.856,-0.128c-0.29,0.279 -0.187,0.769 -1.477,1.183c-1.417,0.454 -0.856,1.908 -2.701,2.085c-0.261,0.025 -1.167,-0.14 -1.399,0.582c-0.045,0.14 -0.042,0.293 -0.083,0.434c-0.223,0.772 -1.151,2.227 -2.488,1.672c-0.332,-0.138 -0.833,-0.678 -2.299,-0.217c-0.799,0.251 -0.697,0.839 -1.805,0.966c-0.42,0.048 -2.233,-0.129 -2.529,0.432c-0.121,0.229 -0.167,0.492 -0.288,0.72c-0.473,0.896 -1.508,0.882 -1.811,1.81c-0.155,0.475 -0.076,0.489 -0.238,0.966c-0.104,0.309 -0.454,0.873 -0.563,1.315c-0.126,0.511 0.012,0.591 -0.403,0.93c-0.125,0.102 -0.301,0.149 -0.462,0.142c-0.724,-0.029 -0.483,-0.369 -0.817,-1.093c-0.022,-0.049 -0.875,-1.352 -1.406,-1.532c-0.837,-0.284 -0.576,0.625 -0.557,0.694c0.066,0.23 1.339,1.031 1.451,2.66c0.08,1.166 0.492,0.967 1.248,1.85c1.21,1.413 3.326,1.443 3.815,2.587c0.155,0.363 0.003,0.512 0.68,1.056c0.925,0.743 0.594,1.041 -0.269,2.222c-0.753,1.031 -0.096,1.664 -0.734,2.467c-1.171,1.474 0.848,1.658 1.179,2.333c0.369,0.751 0.154,0.864 0.711,1.487c0.649,0.726 0.371,1.519 1.158,2.445c1.031,1.213 -0.06,2.169 1.587,2.939c0.179,0.084 0.363,0.16 0.542,0.243c1.214,0.564 0.917,1.321 1.742,1.458c1.009,0.167 1.846,-0.506 3.073,0.974c1.328,1.603 1.372,1.551 2.819,3.038c1.128,1.159 0.786,1.415 1.289,1.854c0.492,0.429 0.982,-0.363 2.535,1.077c2.236,2.073 1.402,2.642 2.057,3.315c0.546,0.561 1.449,-0.241 3.071,0.488c0.562,0.252 0.885,0.828 0.937,0.919c0.649,1.154 1.252,0.485 2.035,1.493c0.934,1.202 0.682,1.833 2.062,2.868c-0.19,0.354 -0.38,0.708 -0.57,1.062c0.031,2.153 0.38,2.757 -0.091,3.559c-0.034,0.058 -0.127,0.065 -0.157,0.124c-0.065,0.126 -0.068,0.276 -0.118,0.408c-0.042,0.112 -0.645,1.159 -0.648,1.163c-0.623,0.866 -0.822,1.071 -1.227,1.104c-1.173,0.097 -3.176,-1.574 -3.563,-1.584c-0.082,-0.002 -0.617,-0.017 -0.811,0.632c-0.047,0.158 -0.007,0.158 0.179,0.888c0.168,0.658 -0.097,0.986 -0.114,1.038c-0.03,0.092 0.039,0.103 -0.276,1.175c-0.371,1.263 -0.267,1.29 -0.325,1.389c-0.108,0.186 -0.377,0.254 -0.461,0.452c-0.065,0.151 0.091,0.33 0.057,0.491c-0.023,0.11 -1.234,1.231 -1.384,1.337c-0.1,0.071 -0.233,0.084 -0.334,0.155c-0.077,0.054 -0.112,0.154 -0.186,0.212c-0.674,0.532 -1.179,0.57 -1.292,0.578c-0.304,0.023 -0.611,-0.013 -0.914,0.022c-0.316,0.036 -0.913,0.105 -3.538,1.814c-1.204,0.784 -1.196,0.796 -1.355,0.859c-0.603,0.236 -0.573,0.283 -1.074,0.686c-0.11,0.109 -1.136,1.115 -1.281,1.451c-0.224,0.516 -0.164,0.751 1.055,2.141c0.867,0.99 0.73,1.091 0.925,1.294c0.686,0.714 1.05,0.42 2.092,2.438c0.778,1.506 0.844,1.627 0.112,3.154c-0.046,0.096 -0.546,1.14 -0.451,1.252c0.094,0.111 0.229,-0.324 1.76,0.453c0.712,0.361 1.638,1.647 1.2,2.737c-0.029,0.072 -0.157,0.392 -0.495,0.828c-1.002,1.295 0.472,2.451 -0.673,3.775c-0.098,0.113 -0.667,0.77 -1.845,0.258c-0.056,-0.024 -0.078,-0.101 -0.135,-0.125c-0.128,-0.053 -0.273,-0.051 -0.404,-0.098c-0.381,-0.135 -0.499,-0.337 -0.537,-0.365c-0.1,-0.074 -0.233,-0.099 -0.328,-0.18c-0.162,-0.137 -0.348,-0.271 -0.436,-0.465c-0.064,-0.14 0.135,-0.365 0.015,-0.462c-0.088,-0.071 -0.268,0.367 -0.999,-0.325c-1.223,-1.159 -0.246,-1.86 -0.925,-2.696c-0.675,-0.83 -1.791,-0.936 -2.651,-0.223c-2.58,2.141 -3.163,0.084 -3.567,-0.27c-0.34,-0.298 -0.362,-0.291 -0.814,-0.272c-0.709,0.029 -0.697,0.055 -1.39,0.166c-0.245,0.039 -0.41,0.032 -0.446,0.031c-0.232,-0.01 -0.218,-0.058 -0.454,-0.068l-0.481,-0.314c-0.335,-0.175 -0.05,-0.42 -0.389,-0.597c-0.03,-0.016 -0.105,-0.055 -0.379,0.196c-0.349,0.319 0.075,1.152 0.165,1.704c0.084,0.512 0.156,0.569 -0.217,0.932c-0.911,0.887 -2.262,-0.769 -5.427,0.858c-1.728,0.889 -3.896,0.16 -4.465,0.162c-0.738,0.003 -0.786,0.751 -1.018,1.118c-0.731,1.158 -1.555,0.992 -2.151,1.014c-1.207,0.044 -1.066,0.697 -1.303,1.309c-0.239,0.616 -0.394,0.476 -0.993,0.75c-1.128,0.516 -1.179,1.24 -2.633,0.934c-0.901,-0.189 -0.896,-0.011 -1.789,0.205c-1.124,0.272 -1.133,0.156 -2.295,0.206c-1.702,0.074 -1.683,-1.648 -1.873,-1.929c-0.054,-0.08 -0.059,-0.064 -0.842,-0.592c-0.503,-0.339 -0.413,-0.427 -0.456,-0.455c-0.235,-0.154 -0.251,-0.1 -1.26,-0.251c-0.759,-0.113 -0.954,-0.421 -1.755,-0.846c-0.624,-0.331 -0.882,-0.331 -0.991,-0.373c-0.1,-0.038 -0.17,-0.173 -0.277,-0.163c-0.093,0.009 -0.121,0.144 -0.189,0.208c-0.768,0.722 -0.807,0.947 -1.803,0.616c-0.411,-0.137 -0.483,-0.344 -0.756,-0.003c-0.45,0.563 0.912,1.543 0.218,2.979c-0.712,1.473 -1.773,1.796 -1.929,2.008c-0.035,0.048 0.094,0.102 -0.3,0.679c-0.027,0.04 -0.318,0.465 -0.345,0.496c-0.119,0.135 -1.094,0.916 -2.2,1.043c-2.641,0.303 -1.313,-1.774 -1.379,-1.946c-0.077,-0.201 -0.388,-0.246 -0.465,-0.446c0.239,-0.086 0.129,-0.233 0.369,-0.32c0.032,-0.011 0.167,-0.06 0.42,0.035c0.001,0 0.77,0.804 0.771,0.805c0.058,0.114 -0.143,0.26 -0.085,0.374c0.069,0.075 0.019,0.217 0.088,0.292c0.166,0.181 0.595,0.042 0.644,0.026c1.12,-0.362 1.723,-1.641 2.003,-1.976c0.163,-0.196 0.567,-0.459 0.926,-0.889c1.151,-1.38 -0.132,-1.788 0.173,-3.302c0.362,-1.802 1.374,-1.164 1.547,-1.103c1.05,0.369 1.23,-0.156 1.271,-0.194c0.967,-0.877 2.099,-0.306 3.439,0.586c0.805,0.536 1.184,0.142 1.95,-0.022c1.264,-0.271 1.261,0.806 1.547,1.3c1.041,1.802 0.807,2.295 2.013,2.278c1.55,-0.022 2.195,-0.496 2.661,-0.652c1.246,-0.417 1.425,0.457 2.391,-0.204c0.238,-0.163 0.85,-0.491 1.053,-0.759c0.733,-0.97 0.389,-1.789 2.431,-1.81c1.153,-0.012 1.138,-0.232 1.664,-1.263c0.62,-1.216 1.794,-0.799 2.801,-0.683c2.778,0.322 2.646,-0.693 4.98,-0.946c1.266,-0.138 2.11,0.03 2.259,0.007c1.167,-0.176 -0.612,-1.388 0.723,-2.545c1.774,-1.538 1.865,-0.232 2.093,0.108c0.469,0.7 2.731,-0.542 3.738,0.648c0.674,0.797 0.6,0.956 1.044,0.966c0.714,0.016 0.932,-0.879 2.222,-1.214c2.642,-0.687 3.34,1.251 3.382,1.314c0.724,1.104 -0.077,1.321 0.301,1.933c0.336,0.545 2.664,2.637 3.381,2.065c0.338,-0.27 0.104,-1.453 0.08,-1.577c-0.35,-1.771 0.532,-1.84 0.816,-2.746c0.258,-0.824 -0.641,-1.236 -0.749,-1.286c-0.89,-0.408 -1.623,-0.313 -1.798,-0.338c-1.074,-0.152 -0.994,-0.564 -0.526,-1.544c0.247,-0.517 0.544,-1.161 0.591,-1.263c0.617,-1.338 0.292,-1.444 -0.094,-2.248c-0.77,-1.604 -1.304,-1.195 -2.267,-2.686c-1.501,-2.325 -2.77,-2.878 -1.585,-4.407c0.2,-0.258 1.653,-1.88 1.668,-1.892c0.847,-0.677 1.08,-0.284 2.295,-1.275c0.759,-0.618 0.828,-0.502 2.246,-1.304c1.42,-0.803 2.425,-0.401 3.169,-0.902c2.209,-1.488 2.016,-1.851 2.618,-4.177c0.413,-1.594 -0.485,-1.791 0.401,-3.178c1.306,-2.043 3.857,1.107 4.903,0.744c0.203,-0.07 0.515,-0.637 0.549,-0.699c0.727,-1.32 1.024,-1.932 0.802,-3.143c-0.166,-0.904 -0.271,-0.896 -0.159,-1.805c0.052,-0.422 0.136,-0.475 -0.819,-2.148c-0.667,-1.168 -1.067,-0.868 -1.582,-1.124c-1.196,-0.595 -0.535,-1.474 -1.837,-1.78c-0.059,-0.014 -0.671,-0.157 -0.741,-0.14c-0.092,0.024 -0.139,0.131 -0.219,0.182c-0.892,0.555 -1.436,-0.193 -1.527,-0.263c-0.216,-0.166 -0.713,-0.409 -1.054,-1.492c-0.234,-0.743 -0.102,-0.853 -1.498,-2.164c-1.26,-1.183 -1.954,-0.042 -2.847,-1.27c-0.042,-0.058 -0.138,-0.1 -0.132,-0.172c0.01,-0.128 0.211,-0.223 0.172,-0.345c-0.065,-0.203 -0.335,-0.28 -0.434,-0.469c-0.063,-0.119 0.049,-0.291 -0.025,-0.404c-0.099,-0.151 -0.439,-0.205 -0.963,-0.738c-0.42,-0.427 -0.359,-0.473 -0.395,-0.51c-0.076,-0.077 -0.196,-0.097 -0.28,-0.164c-0.499,-0.402 -1.375,-1.545 -1.485,-1.688c-0.861,-1.123 -1.077,-0.843 -2.496,-0.869c-1.792,-0.032 -1.213,-1.105 -2.235,-1.586c-0.305,-0.143 -0.629,-0.245 -0.927,-0.402c-1.581,-0.832 -1.033,-2.423 -1.709,-3.194c-0.893,-1.018 -0.32,-1.372 -1.248,-2.355c-0.463,-0.49 -0.337,-0.554 -0.548,-1.198c-0.256,-0.782 -1.105,-0.77 -1.526,-1.723c-0.637,-1.443 -0.106,-1.693 0.279,-2.186c0.209,-0.268 0.133,-0.939 0.139,-1.013c0.076,-0.845 0.831,-1.584 0.923,-1.803c0.203,-0.488 -0.055,-0.449 -0.397,-0.846c-0.033,-0.038 -0.229,-0.266 -0.36,-0.516c-0.063,-0.12 -0.06,-0.271 -0.133,-0.385c-0.025,-0.039 0.12,-0.233 -2.157,-1.397c-1.691,-0.865 -1.446,-1.18 -2.021,-1.655c-0.069,-0.057 -0.171,-0.061 -0.242,-0.117c-0.452,-0.359 -0.515,-0.336 -0.644,-0.893c-0.036,-0.156 -0.016,-0.157 0.025,-0.953c0.081,-1.558 -1.821,-1.968 -1.59,-3.102c0.06,-0.293 0.252,-0.558 0.264,-0.856c0.008,-0.185 -0.163,-0.336 -0.206,-0.515c-0.18,-0.755 0.783,-1.082 1.382,-0.639c0.415,0.307 0.346,0.369 0.514,0.539c0.355,0.358 0.742,0.472 0.759,0.481c0.459,0.25 1.083,1.337 1.286,1.297c0.07,-0.014 0.228,-0.045 0.439,-0.772c0.222,-0.766 0.174,-0.773 0.194,-0.839c0.366,-1.254 1.028,-1.207 1.477,-1.531c0.955,-0.687 0.272,-1.999 2.396,-2.139c1.361,-0.09 1.499,0.253 2.558,-0.598c0.496,-0.398 0.531,-0.32 1.111,-0.584c1.378,-0.628 2.237,0.705 3.096,0.367c0.405,-0.159 0.621,-1.259 0.645,-1.378c0.207,-1.054 0.548,-1.215 2.031,-1.29c0.932,-0.047 0.906,-0.211 1.391,-0.954c0.76,-1.164 1.257,-1.005 1.656,-1.128c0.708,-0.218 0.728,-1.897 2.395,-1.273c0.318,0.119 0.573,0.414 0.967,-0.215c0.586,-0.936 0.156,-1.353 1.143,-2.089c1.352,-1.007 3.647,-0.69 4.57,-0.725c1.333,-0.051 0.409,-1.58 1.776,-2.27c0.463,-0.234 3.125,-1.262 3.585,-1.414c1.51,-0.501 1.122,-1.26 2.343,-1.474c0.107,-0.019 0.219,0.035 0.326,0.013c0.061,-0.012 0.092,-0.088 0.15,-0.11c0.126,-0.05 0.322,0.013 0.394,-0.103c0.082,-0.132 0.025,-0.324 -0.041,-0.465c-0.039,-0.083 -0.173,-0.073 -0.24,-0.135c-0.166,-0.154 -0.291,-0.35 -0.453,-0.508c-0.149,-0.145 -0.333,-0.253 -0.479,-0.401c-0.521,-0.527 -0.142,-1.779 0.147,-2.186c0.886,-1.247 2.142,0.169 3.204,-0.018c0.625,-0.11 0.668,-0.53 1.524,-0.035c1.958,1.131 1.401,1.593 1.71,2.365c0.043,0.107 0.183,0.141 0.267,0.219c0.61,0.572 0.243,1.657 0.659,1.999c0.109,0.089 1.563,0.45 1.731,0.437c0.546,-0.042 0.381,-0.302 1.714,-3.578c1.214,-2.984 0.996,-3.047 1.372,-6.254c0.221,-1.888 0.716,-2.008 -0.252,-3.646c-0.633,-1.072 -1.003,-2.927 -1.594,-3.383c-0.042,-0.033 -0.408,-0.315 -0.546,-0.384c-0.122,-0.061 -0.166,0.054 -1.603,-0.599c-2.619,-1.189 -1.485,-2.781 -1.464,-2.828c0.768,-1.744 -0.183,-2.086 -0.72,-2.655c-0.908,-0.964 -0.873,-1.907 -1.194,-2.335c-0.307,-0.408 -0.358,-0.359 -0.648,-0.773c-0.801,-1.142 0.785,-2.005 1.213,-3.193c0.03,-0.085 0.648,-3.523 0.651,-3.552c0.139,-1.51 -1.204,-1.263 -0.967,-3.149c0.159,-1.263 0.126,-1.266 0.15,-1.373c0.029,-0.129 0.223,-0.165 -0.037,-0.495c-0.23,-0.292 -0.278,-0.224 -0.916,-0.529c-1.148,-0.55 -1.446,-1.644 -2.03,-3.394c-0.657,-1.965 1.021,-1.982 0.742,-4.117c-0.122,-0.936 0.016,-1.147 -0.005,-1.338c-0.035,-0.323 -0.546,-1.443 -1.996,-2.137c-0.788,-0.377 -1.702,-1.201 -1.837,-1.322c-2.238,-2.017 -2.406,-2.136 -2.634,-2.297c-0.529,-0.375 -1.61,-0.655 -1.817,-0.911c-0.352,-0.436 0.01,-0.527 -0.26,-2.323c-0.329,-2.19 0.108,-2.281 2.004,-3.726c1.235,-0.941 1.285,-0.999 1.501,-2.531c0.135,-0.958 -0.227,-1.651 -0.17,-2.264c0.118,-1.278 1.295,-1.291 0.706,-2.732c-0.62,-1.516 -0.563,-1.526 -0.997,-3.105c-0.456,-1.661 -0.585,-1.606 -1.294,-3.172c-0.573,-1.264 0.052,-1.401 -0.419,-2.705c-0.413,-1.146 -0.804,-1.717 -0.897,-1.853c-0.39,-0.57 -0.281,-0.615 -0.32,-0.659c-0.126,-0.141 -1.225,-0.067 -1.592,-0.127c-2.274,-0.37 -3.447,-1.471 -3.684,-1.693c-1.481,-1.39 -1.823,-1.475 -1.35,-2.425c0.131,-0.262 0.841,-0.733 0.724,-1.342c-0.026,-0.138 -0.216,-0.206 -0.242,-0.343c0.045,-0.07 0.559,-0.871 0.559,-0.871c0.07,-0.085 0.188,-0.12 0.258,-0.205c-0.228,-0.589 -0.174,-1.005 -0.705,-0.659c-0.089,0.058 -0.109,0.192 -0.199,0.249c-0.09,0.057 -0.225,0.01 -0.31,0.074c-0.196,0.148 -0.307,0.39 -0.503,0.538c-0.723,-0.836 -1.087,-1.022 -0.917,-1.891c0.208,-1.059 0.252,-1.053 0.212,-1.367c-0.161,-1.265 -1.732,-0.779 -1.886,-0.731c-1.143,0.354 -1.179,0.257 -2.212,0.854c-1.482,0.855 -1.383,-0.116 -1.998,-0.84c-0.637,-0.75 -1.057,-0.231 -1.593,-1.057c-0.108,-0.167 -0.355,-1.396 -1.009,-1.656c-0.581,-0.232 -1.53,0.1 -2.515,-1.546c-0.757,-1.264 -0.673,-1.301 -0.777,-1.693c-0.194,-0.732 -0.314,-0.666 -0.87,-1.172c-0.07,-0.064 -0.604,-0.55 -1.172,-0.164c-0.174,0.118 -0.267,0.333 -0.441,0.451c-0.192,-0.139 -0.275,-0.397 -0.466,-0.536c-0.096,-0.07 -0.242,-0.011 -0.351,-0.057c-0.08,-0.034 -0.113,-0.14 -0.193,-0.173c-0.495,-0.202 -0.714,0.257 -0.741,0.315c-0.161,0.337 -0.009,0.332 0.267,0.576c0,0 0.629,0.774 0.684,0.842c-0.147,0.118 -0.569,0.817 -1.308,0.158c-0.427,-0.381 -0.698,-0.733 -2.828,-0.118c-0.574,0.165 -0.529,0.254 -0.867,0.417c-0.334,-0.148 -0.667,-0.296 -1.001,-0.444c-0.023,0.005 -0.293,-0.158 -0.587,0.125c-0.35,0.338 -0.238,0.594 -0.261,0.651c-0.158,0.137 -0.273,0.319 -0.431,0.456c-0.16,0.138 -0.369,0.216 -0.518,0.366c-0.209,0.211 -0.334,0.495 -0.543,0.707c-0.22,0.136 -0.441,0.272 -0.661,0.407c-0.986,0.886 -1.268,1.078 -1.723,1.748c-0.934,1.374 -1.202,1.056 -2.824,1.424c-2.371,0.538 -4.765,0.53 -5.437,1.191c-0.636,0.625 -0.11,1.219 -1.725,2.766c-1.321,1.266 -1.039,1.498 -1.127,2.133c-0.343,2.476 -2.385,0.807 -3.02,0.663c-0.143,-0.032 -0.295,-0.001 -0.44,-0.023c-1.083,-0.161 -0.694,-1.079 -1.373,-1.432c-1.409,-0.731 -2.088,0.016 -4.01,0.809c-1.414,0.583 -1.405,-0.117 -2.701,-0.858c-1.49,-0.851 -1.202,-1.658 -1.175,-1.775c0.039,-0.171 0.357,-1.577 1.191,-1.839c0.309,-0.097 1.12,-0.005 1.321,-0.103c0.356,-0.175 0.707,-0.514 0.762,-0.566c0.068,-0.066 0.091,-0.169 0.159,-0.236c0.078,-0.078 0.192,-0.112 0.269,-0.19c0.074,-0.075 0.105,-0.185 0.179,-0.26c0.074,-0.075 0.184,-0.108 0.257,-0.184c0.036,-0.038 -0.004,-0.06 0.412,-0.502c0.776,-0.825 0.664,-1.021 0.49,-2.886c-0.125,-1.333 -0.047,-1.729 -0.252,-1.825c-0.141,-0.066 -1.231,-0.154 -1.379,-0.111c-0.916,0.266 -0.87,1.933 -3.564,1.834c-1.948,-0.071 -1.525,-1.13 -4.069,-2.107c-0.739,-0.284 -1.586,-0.733 -1.82,-0.828c-0.891,-0.363 -0.945,-0.21 -1.747,0.328c-0.297,-0.182 -0.014,-0.39 -0.309,-0.57c-0.047,-0.029 -0.124,-0.076 -0.694,-0.044c-0.194,0.011 -0.377,0.104 -0.571,0.115c-0.237,-1.163 -0.235,-1.168 -0.3,-1.248c-0.349,-0.432 -0.459,-0.209 -2.183,-0.13c-1.794,0.083 -1.872,0.462 -2.23,0.364c-1.049,-0.287 -0.458,-1.072 -0.399,-1.15c0.195,-0.259 0.937,-0.363 1.56,-1.132c1.05,-1.297 1.037,-1.855 1.033,-2.037c-0.002,-0.075 -0.02,-0.824 -0.838,-0.43c-0.086,0.042 -0.063,0.076 -1.004,0.654c-1.634,1.004 -1.325,1.359 -2.642,2.411c-0.142,0.113 -0.953,0.761 -2.212,0.518c-1.045,-0.201 -0.391,-1.555 0.907,-1.772c0.884,-0.148 0.985,0.008 1.591,-0.659c1.463,-1.61 1.907,-1.185 2.758,-2.611c0.576,-0.965 0.915,-1.02 0.389,-2.006c-0.019,-0.036 -0.02,-0.032 -0.264,-0.433c0.345,-0.228 0.691,-0.455 1.036,-0.683Z" style="fill:#2f6f5e;stroke:#2f6f5e;stroke-width:1px;"/><path d="M71.982,42.321c0.074,-0.052 0.196,0.091 0.271,0.039c0.063,-0.044 -0.059,-0.11 0.409,-0.874c0.825,-1.344 1.364,-1.193 3.666,0.623c0.566,0.447 0.629,0.309 0.969,0.434c0.301,-0.035 0.603,-0.07 0.904,-0.105c-0.026,1.239 -0.032,1.246 -0.1,1.328c-0.325,0.392 -1.05,-0.107 -1.124,-0.159c-0.464,-0.32 -0.511,-0.231 -1.956,-1.155c-0.662,-0.423 -0.632,-0.768 -1.361,-0.468c-0.265,0.109 -0.204,0.175 -0.239,0.461c-0.015,0.119 -0.112,0.234 -0.081,0.349c0.027,0.102 1.057,0.416 0.778,2.352c-0.194,1.347 -0.913,1.773 -1.247,1.969c-0.099,0.058 -0.728,0.427 -1.426,-0.19c-0.098,-0.086 -0.74,-1.032 -0.988,-1.128c-0.666,-0.256 -0.822,-0.09 -1.131,-0.727c-0.404,-0.834 -0.024,-1.567 0.256,-1.772c0.414,-0.302 0.444,-0.246 0.852,-0.544c0.062,-0.046 0.36,-0.394 0.359,-0.411c-0.004,-0.066 -0.07,-0.038 -0.357,-0.743c-0.575,-1.412 -1.471,-1.052 -1.813,-2.263c-0.095,-0.335 0.05,-0.834 -0.792,-0.853c-3.152,-0.071 -3.399,0.313 -4.468,0.502c-3.499,0.618 -3.509,0.096 -5.415,0.025c-0.9,-0.033 -2.274,0.915 -2.688,1.2c-1.263,0.87 -0.439,1.795 -0.576,2.205c-0.165,0.493 -0.723,0.833 -0.805,0.882c-0.191,0.116 -0.547,0.052 -0.782,0.977c-0.562,2.213 -0.84,2.781 0.364,3.107c1.107,0.3 1.12,0.221 2.224,0.548c0.902,0.267 1.313,0.366 0.826,1.172c-0.006,0.01 -0.31,0.043 -0.499,1.422c-0.071,0.522 -0.04,1.53 -0.376,2.229c-0.243,0.505 -0.41,0.492 -0.265,1.355c0.053,0.317 0.429,2.568 -0.249,4.005c-0.127,0.27 -0.588,1.138 -1.082,2.36c-0.451,1.115 -0.733,1.443 -0.855,2.216c-0.454,2.879 -0.406,4.801 -2.002,5.263c-0.966,0.28 -3.503,-0.932 -4.111,-0.478c-0.445,0.332 -0.305,0.425 -0.201,0.975c0.131,0.694 0.224,0.771 -0.27,1.273c-0.504,0.512 -0.909,0.526 -0.478,1.103c0.475,0.636 3.247,1.451 3.301,1.451c0.533,0.005 1.358,-1.055 2.48,1.255c1.008,2.074 -0.15,2.369 -0.152,3.956c-0.001,0.851 0.267,0.961 -0.326,1.565c-0.676,0.69 -0.857,0.474 -1.486,1.2c-1.3,1.5 -1.179,1.825 -2.788,2.038c-1.159,0.153 -1.17,1.282 -1.113,1.423c0.066,0.163 1.607,0.839 1.465,1.839c-0.263,1.857 -1.407,2.332 -1.622,2.421c-0.284,0.118 -0.275,0.114 -3.645,1.219c-1.105,0.362 -1.134,0.17 -2.285,0.321c-1.052,0.138 -1.2,-0.557 -3.108,-0.844c-0.456,-0.069 -0.489,-0.182 -0.874,0.08c-0.205,0.139 -0.267,0.806 -1.295,0.245c-0.937,-0.511 -1.999,0.403 -2.027,0.578c-0.018,0.111 0.139,0.094 0.199,1.389c0.015,0.324 -0.022,0.35 0.206,0.572c0.528,0.514 0.607,0.484 0.767,1.199c0.1,0.448 0.08,0.475 0.453,0.748c0.898,0.658 0.612,0.851 0.452,1.575c-0.152,0.69 0.561,1.284 1.351,2.55c0.283,0.454 0.573,0.464 0.509,3.694c-0.008,0.401 0.1,0.963 -0.854,2.054c-0.208,0.238 -0.259,0.174 -0.474,0.407c-0.071,0.077 0.001,0.129 -0.782,1.055c-0.086,0.101 -0.852,1.008 -0.852,1.424c0.001,0.428 0.062,0.433 0.437,0.631c0.726,0.383 0.955,0.334 0.904,1.153c-0.059,0.962 -1.444,1.495 -2.636,2.238c-0.413,0.257 -0.744,0.976 -1.241,1.12c-0.185,0.053 -0.385,0.032 -0.571,0.077c-0.447,0.107 -0.521,0.171 -0.419,0.619c0.141,0.616 0.398,0.326 1.348,0.442c1.11,0.136 0.843,1.05 1.228,1.433c0.357,0.355 1.273,0.972 0.644,2.223c-0.147,0.293 -1.288,1.074 -1.41,1.297c-0.158,0.286 0.258,1.115 0.333,1.366c0.16,0.535 0.037,0.652 0.541,0.892c1.64,0.781 1.467,1.795 2.259,2.226c0.972,0.528 1.803,0.704 0.609,2.781c-0.118,0.205 -0.806,1.165 -0.241,1.369c0.156,0.056 2.678,0.099 2.291,3.037c-0.09,0.686 -0.16,0.688 0.014,1.362c0.12,0.467 0.225,0.463 0.113,0.933c-0.167,0.697 -1.06,-0.057 -1.858,1.322c-0.557,0.963 -1.469,1.232 -1.749,1.801c-0.108,0.218 0.135,0.46 -0.6,1.224c-0.147,0.153 -0.286,0.088 -0.593,1.4c-0.375,1.603 -0.296,1.635 0.21,3.195c0.328,1.009 0.777,0.764 1.099,1.772c0.284,0.888 0.185,0.949 0.47,1.169c0.044,0.034 0.099,-0.098 0.62,0.3c0.196,0.15 0.142,0.24 0.991,0.747c0.849,0.507 0.765,0.746 1.759,0.808c1.71,0.108 1.552,0.688 1.419,2.392c-0.171,2.192 -1.295,1.908 -1.798,2.732c-0.416,0.683 -0.27,0.753 -0.869,1.806c-0.114,0.201 -1.285,2.259 0.033,2.885c0.628,0.298 0.621,0.3 1.225,0.654c0.691,0.405 0.673,0.419 1.247,0.988c0.54,1.052 0.47,1.077 0.865,2.191c0.088,0.248 0.165,0.37 0.184,0.4c0.168,0.266 0.21,0.223 0.376,0.485c1.022,1.344 0.925,1.662 1.211,2.308c0.5,1.128 0.006,1.904 1.07,2.051c0.97,0.135 0.661,-0.531 0.741,-0.812c0.234,-0.823 2.247,-1.627 3.833,-0.102c0.644,0.619 0.614,1.211 0.879,1.35c0.074,0.039 0.101,-0.038 0.96,0.397c0.636,0.322 2.229,0.623 2.52,0.512c0.757,-0.29 0.972,-1.324 3.163,-1.327c1.617,-0.002 1.108,0.734 1.341,1.455c0.195,0.604 1.637,1.677 2.275,1.773c1.27,0.191 3.312,0.318 3.601,0.336c1.551,0.097 1.793,-0.462 2.687,0.126c0.924,0.608 0.72,0.937 2.71,1.762c2.656,1.102 1.749,1.931 1.19,2.6c-0.728,0.871 -0.801,0.841 -1.133,1.951c-0.626,2.092 -2.191,2.183 -2.579,2.442c-0.084,0.056 -0.123,0.161 -0.194,0.232c-0.22,0.22 -0.215,0.224 -0.302,0.518c-0.285,0.962 -0.522,0.823 -1.454,2.213c-0.304,0.454 -1.335,1.382 -1.421,2.209c-0.01,0.097 0.135,1.333 -0.552,2.11c-0.713,0.808 -0.674,0.842 -0.95,1.882c-0.495,1.866 0.711,2.297 -0.589,3.38c-0.749,0.624 -0.413,0.827 -0.83,1.706c-1.203,2.54 -1.778,2.719 -1.813,3.958c-0.031,1.104 -0.079,1.114 0.305,2.229c0.623,1.808 0.315,1.872 -0.518,3.588c-1.456,3.002 -0.777,3.217 -0.786,4.059c-0.012,1.18 -0.452,1.207 0.023,2.661c0.41,1.257 1.4,0.924 1.684,1.02c0.594,0.201 0.478,0.348 0.715,0.931c0.017,0.088 -0.044,0.179 -0.028,0.266c0.051,0.269 0.109,0.242 0.173,0.502c0.073,0.297 0.023,0.297 0.097,0.597c-0.425,-0.092 -0.492,0.086 -1.427,-0.516c-0.208,-0.134 -0.758,-0.558 -0.822,-0.608c-0.506,-0.505 -0.543,-0.446 -1.148,-0.84c-0.143,-0.65 -0.122,-0.646 -0.346,-1.276c-0.568,-1.595 0.108,-1.938 -0.074,-3.154c-0.036,-0.237 -0.455,-0.386 0.535,-3.212c0.511,-1.458 1.486,-2.091 0.949,-3.543c-1.587,-4.287 1.119,-5.167 1.67,-7.678c0.032,-0.145 0.027,-0.297 0.056,-0.443c0.214,-1.064 1.069,-1.038 1.039,-1.778c-0.029,-0.712 -0.454,-0.77 0.4,-3.153c0.426,-1.189 0.995,-0.965 1.087,-2.228c0.141,-1.931 0.696,-1.916 2.369,-4.18c0.731,-0.989 0.626,-1.716 1.45,-2.22c1.4,-0.857 1.783,-0.587 2.264,-2.159c0.594,-1.944 1.224,-1.74 1.32,-2.251c0.153,-0.817 -1.236,-0.701 -2.599,-1.815c-0.674,-0.551 -0.912,-0.929 -1.821,-0.836c-0.59,0.061 -0.71,0.14 -4.507,-0.255c-1.492,-0.155 -1.477,-0.284 -2.823,-1.397c-1.343,-1.11 -0.896,-1.648 -1.673,-1.814c-0.584,-0.125 -1.349,0.54 -1.444,0.622c-0.207,0.18 -0.794,1.202 -3.55,0.314c-0.642,-0.207 -0.621,-0.311 -1.297,-0.281c-0.554,0.025 -0.705,0.177 -0.908,-0.346c-0.12,-0.309 -0.188,-0.637 -0.296,-0.95c-0.489,-1.425 -1.968,-1.377 -2.24,-0.799c-0.284,0.602 -0.03,1.855 -2.379,1.286c-2.428,-0.588 -0.615,-2.185 -2.794,-4.856c-1.391,-1.705 -0.464,-2.377 -2.19,-3.619c-1.11,-0.799 -2.012,-0.681 -2.351,-1.816c-0.028,-0.094 -0.383,-0.65 0.328,-2.662c0.125,-0.353 0.307,-0.35 0.994,-1.943c0.704,-1.633 1.734,-1.09 1.832,-2.633c0.005,-0.086 0.055,-0.866 -0.133,-1.064c-0.269,-0.284 -0.992,-0.025 -1.467,-0.35c-0.216,-0.148 -0.124,-0.302 -0.994,-0.658c-0.478,-0.196 -0.506,-0.148 -0.667,-0.333c-0.151,-0.173 -0.239,-0.398 -0.405,-0.556c-0.467,-0.444 -0.574,-0.286 -1.044,-0.723c-0.202,-0.187 -0.382,-0.761 -0.404,-0.831c-0.217,-0.693 -0.286,-0.652 -0.724,-1.225c-0.207,-0.271 -0.966,-2.304 -0.941,-3.244c0.049,-1.859 0.89,-3.345 1.038,-3.606c0.462,-0.816 0.196,-1.086 0.995,-1.677c0.065,-0.048 0.093,0 0.851,-0.534c0.653,-0.46 0.292,-0.889 1.404,-1.712c0.652,-0.483 0.43,-0.625 0.476,-1.435c0.016,-0.289 0.323,-1.106 -0.034,-1.84c-0.418,-0.859 -2.329,-0.184 -2.475,-1.744c-0.11,-1.18 1.565,-2.209 0.804,-2.872c-0.159,-0.139 -0.641,-0.353 -0.963,-0.814c-0.639,-0.915 -0.455,-1.155 -1.51,-1.543c-0.139,-0.051 -0.294,-0.051 -0.434,-0.102c-0.933,-0.339 -0.441,-1.321 -0.984,-2.246c-0.6,-1.024 -0.37,-1.22 0.949,-2.392c0.535,-0.475 0.851,-0.612 0.31,-1.084c-0.249,-0.217 -0.32,-0.106 -0.548,-0.342c-0.358,-0.37 -0.176,-0.971 -1.059,-1.113c-1.131,-0.181 -1.334,-0.218 -1.491,-1.422c-0.079,-0.605 -0.648,-2.059 1.08,-1.973c0.678,0.034 0.718,0.06 1.217,-0.4c1.43,-1.317 2.986,-1.22 1.795,-1.973c-0.176,-0.111 -0.601,-0.172 -0.637,-1.062c-0.064,-1.578 0.642,-1.788 1.642,-3.14c0.857,-1.159 1.358,-0.99 1.359,-2.696c0.001,-1.91 0.047,-2.154 -0.735,-3.265c-1.193,-1.697 -1.217,-1.914 -1.238,-2.108c-0.025,-0.232 0.23,-0.753 -0.361,-1.264c-0.44,-0.381 -0.396,-0.422 -0.526,-0.986c-0.297,-1.293 -1.196,-1.003 -1.2,-1.81c-0.001,-0.274 0.278,-0.511 0.079,-1.372c-0.06,-0.26 -0.653,-1.061 1.354,-2.06c0.553,-0.275 0.597,-0.13 1.163,-0.384c0.619,-0.278 1.021,-0.999 2.024,-0.424c0.803,0.46 0.862,0.286 2.117,0.661c0.967,0.288 1.097,-0.135 1.767,0.08c1.052,0.337 1.096,0.554 2.751,-0.03c1.896,-0.67 3.206,-0.793 3.526,-1.878c0.454,-1.543 -1.785,-1.056 -1.406,-2.713c0.106,-0.464 0.877,-1.733 1.358,-1.945c0.745,-0.329 1.357,0.063 2.161,-0.875c0.851,-0.993 0.773,-1.068 1.819,-1.854c0.559,-0.42 0.458,-1.403 0.492,-1.602c0.214,-1.271 1.019,-1.687 0.16,-3.155c-0.377,-0.643 -1.256,-0.337 -1.807,-0.514c-0.308,-0.099 -3.056,-0.977 -3.703,-1.63c-0.471,-0.475 -0.437,-1.901 -0.029,-2.394c0.318,-0.385 0.492,-0.325 0.445,-0.819c-0.085,-0.905 -0.441,-1.047 0.23,-1.654c1.123,-1.015 2.513,-0.436 2.542,-0.43c1.827,0.371 2.389,0.732 2.899,-0.068c0.402,-0.631 0.45,-3.719 1.259,-5.446c1.877,-4.009 1.737,-4.073 1.739,-4.982c0.004,-2.18 -0.571,-2.286 0.148,-3.501c0.435,-0.735 0.231,-1.218 0.429,-2.313c0.015,-0.081 0.155,-0.858 0.009,-1.03c-0.767,-0.902 -4.012,0.043 -3.404,-3.058c0.563,-2.876 0.654,-2.853 0.693,-3.105c0.099,-0.644 0.021,-0.698 0.479,-1.155c0.08,-0.08 0.153,-0.176 0.255,-0.227c0.077,-0.038 0.209,0.045 0.258,-0.026c0.104,-0.151 -0.163,-0.384 0.579,-1.37c0.874,-1.161 1.403,-1.33 2.67,-1.95c1.991,-0.975 2.705,0.37 5.945,-0.24c2.681,-0.504 2.668,-0.625 5.389,-0.618c2.187,0.006 1.51,1.102 1.975,1.84c0.2,0.318 0.802,0.493 1.134,1.054c0.095,0.161 0.245,0.413 1.044,2.092Z" style="fill:#2f6f5e;stroke:#2f6f5e;stroke-width:1px;"/><path d="M198.566,168.327c-0.299,0.132 -0.598,0.265 -0.897,0.397c-0.152,-0.011 -0.304,0.04 -0.455,0.029c-0.955,-0.07 -1.344,-1.12 -1.499,-1.209c-0.143,-0.083 -1.207,-0.238 -1.515,-0.012c-0.053,0.039 -0.299,0.556 -0.304,0.653c-0.001,0.018 0.439,1.228 0.003,4.066c-0.104,0.678 0.025,1.403 -1.199,1.766c-0.401,0.119 -1.46,0.126 -1.596,0.28c-0.06,0.068 -0.022,0.531 -0.532,1.164c-1.27,1.577 -0.379,1.878 -0.76,3.034c-0.045,0.137 -0.384,1.164 -1.564,0.901c-0.406,-0.09 -1.219,-0.778 -1.825,-0.699c-0.156,0.021 -0.29,0.165 -0.447,0.153c-0.165,-0.013 -0.28,-0.201 -0.444,-0.224c-1.193,-0.166 -1.063,0.279 -1.841,1.207c-0.084,0.101 -0.77,0.919 -1.298,1.007c-0.071,0.012 -0.531,0.089 -0.889,-0.101c-0.175,-0.093 -0.285,-0.293 -0.471,-0.364c-0.168,-0.064 -0.197,0.211 -2.236,-0.236c-0.159,-0.035 -0.304,-0.122 -0.465,-0.149c-0.451,-0.075 -0.455,0.024 -0.891,-0.082c-0.665,-0.163 -0.662,-0.192 -1.155,-0.667c-0.259,-0.249 -0.214,-0.276 -0.38,-0.59c-0.075,-0.142 -0.179,-0.132 -0.181,-0.55c-0.002,-0.45 0.109,-0.495 -0.186,-0.838c-0.057,-0.066 -0.196,-0.064 -0.215,-0.149c-0.043,-0.184 0.197,-0.447 0.049,-0.565c-0.157,-0.125 -0.389,0.179 -0.585,0.137c-0.201,-0.043 -0.31,-0.276 -0.493,-0.37c-0.101,-0.052 -0.119,0.013 -1.35,-0.456c0.19,-0.354 0.38,-0.708 0.57,-1.062c1.543,0.927 3.473,1.929 3.554,2.395c0.074,0.426 -0.656,1.388 0.841,1.729c1.761,0.401 1.787,0.223 3.554,0.611c2.155,0.474 1.913,-2.056 3.161,-2.141c0.29,-0.02 0.988,0.5 1.798,0.271c0.658,-0.186 0.748,-0.343 1.227,0.146c0.262,0.268 0.195,0.391 0.564,0.42c0.062,0.005 0.518,0.041 0.563,-0.542c0.078,-1.008 -0.388,-1.232 0.608,-2.438c0.426,-0.516 0.59,-1.079 0.62,-1.181c0.566,-1.944 1.992,-0.572 2.558,-1.45c0.06,-0.094 0.566,-2.146 0.321,-3.524c-0.148,-0.835 -0.412,-1.408 0.511,-2.413c0.393,-0.427 0.787,-0.672 2.466,-0.263c1.114,0.272 1.177,0.872 1.313,0.953c0.663,0.394 1.229,-0.451 1.361,-0.517c0.229,-0.114 0.61,-0.304 3.174,0.438c0.586,0.17 4.909,2.089 5.824,2.067c1.145,-0.027 1.334,-1.248 3.21,0.134c3.05,2.246 3.231,2.613 4.428,2.618c3.626,0.015 3.793,-0.05 4.099,-0.168c1.182,-0.458 0.373,-2.114 2.651,-2.287c0.192,-0.015 1.021,-0.077 2.314,0.653c1.117,0.631 0.745,1.249 1.737,1.364c1.003,0.116 3.23,-0.301 3.653,0.554c0.384,0.776 0.053,0.89 0.76,2.325c0.868,1.762 0.442,2.817 0.351,3.044c-0.433,1.074 -1.086,1.819 -1.005,3.654c0.052,1.178 0.826,0.818 1.116,1.816c0.193,0.667 0.204,0.664 0.66,1.193c0.94,1.088 0.573,2.094 1.765,3.134c1.132,0.987 1.485,0.919 1.399,2.425c-0.058,1.017 0.267,0.928 1.198,1.343c0.012,0.048 0.196,0.332 0.212,0.885c0.013,0.447 -0.011,0.441 0.003,0.89c-0.031,0.399 -0.015,0.402 -0.034,0.43c-0.147,0.22 -0.448,0.296 -0.619,0.498c-0.084,0.099 -0.094,0.244 -0.117,0.372c-0.045,0.261 -0.026,0.531 -0.086,0.789c-0.071,0.31 -0.572,0.522 -0.364,1.535c0.252,1.225 -0.16,1.324 0.399,2.341c0.053,0.097 0.047,0.247 0.145,0.297c0.189,0.096 0.439,-0.002 0.628,0.094c-0.001,0.055 0.051,0.053 -0.054,1.213c-1.891,0.036 -1.854,0.275 -3.713,0.644c-0.725,0.144 -1.124,0.022 -1.849,0.204c-0.284,0.071 -0.562,0.162 -0.848,0.226c-0.075,0.017 -0.57,0.127 -0.966,-0.028c-0.72,-0.283 -0.081,-1.401 -1.784,-1.731c-1.41,-0.273 -1.46,0.892 -1.677,1.26c-0.09,0.153 -0.644,0.551 -0.626,0.855c0.024,0.388 1.055,0.388 2.361,0.731c1.615,0.424 1.103,1.037 1.554,1.641c0.074,0.1 0.161,0.19 0.23,0.294c0.644,0.966 0.047,1.001 -0.233,1.711c-0.395,1.003 0.114,1.598 -3.264,3.858c-1.32,0.883 0.682,1.942 -0.231,3.35c-1.233,1.903 0.984,2.5 1.275,2.91c0.369,0.518 0.254,0.566 0.105,1.178c-0.115,0.474 -0.071,0.477 0.04,0.948c0.115,0.492 0.051,0.492 -0.065,0.848c-0.232,0.713 0.04,0.717 0.093,0.938c0.033,0.141 0.048,0.299 -0.001,0.436c-0.023,0.066 -0.71,0.771 -2.243,0.633c-0.297,-0.027 -0.59,-0.086 -0.888,-0.1c-0.94,-0.044 -0.789,0.798 -1.772,1.311c-1.037,0.541 -0.98,0.629 -1.583,1.625c-1.163,1.924 -2.471,1.42 -2.656,2.811c-0.181,1.359 0.686,1.976 0.862,2.362c1.051,2.306 -0.55,1.751 -0.689,1.703c-1.329,-0.46 -2.047,-1.565 -3.623,-0.977c-2.027,0.756 -2.194,-0.002 -3.533,0.581c-1.744,0.759 -1.104,3.851 -3.994,2.048c-0.839,-0.523 -1,-0.534 -4.592,-0.01c-1.763,0.257 -1.957,0.091 -2.843,0.878c-1.18,1.048 -1.838,0.151 -2.638,0.947c-0.25,0.249 -0.607,1.385 -0.646,1.51c-0.503,1.604 -1.164,1.176 -1.937,1.314c-1.07,0.191 -0.315,1.252 -1.788,1.82c-1.15,0.443 -0.932,0.757 -1.233,1.393c-0.517,1.092 -0.781,-0.041 -1.95,-0.37c-0.518,-0.146 -0.515,-0.136 -0.994,-0.387c-1.487,-0.776 -4.408,0.672 -6.051,-0.382c-0.655,-0.42 -0.674,-0.377 -1.447,-0.478c-1.328,-0.173 -1.23,-0.668 -4.039,-0.878c-4.196,-0.315 -5.597,-1.276 -7.175,-1.009c-0.935,0.159 -0.935,0.155 -1.865,-0.005c-1.465,-0.252 -2,0.616 -3.547,-0.176c-1.177,-0.602 -1.221,-0.505 -4.953,-0.862c-3.685,-0.353 -3.687,-0.343 -4.878,-0.671c-0.906,-0.249 -0.913,-0.14 -1.858,-0.147c-1.943,-0.013 -3.918,-0.923 -4.697,-2.24c-0.523,-0.884 -0.582,-0.834 -1.067,-1.138c-0.819,-0.513 -0.595,-0.691 -0.686,-1.649c-0.117,-1.234 -1.117,-0.825 -2.037,-1.443c-1.123,-0.754 -0.474,-1.129 -1.005,-2.588c-0.414,-1.136 -0.084,-1.219 0.983,-1.785c0.072,-0.038 0.832,-0.442 0.415,-0.932c-0.413,-0.485 -2.579,0.824 -2.694,0.881c-2.177,1.059 -2.217,0.959 -4.388,2.029c-1.383,0.682 -1.509,0.711 -2.881,-0.052c0.333,-0.228 0.666,-0.456 1,-0.683c0.151,0.008 0.284,0.121 0.435,0.129c0.149,0.008 0.311,0.016 1.742,-0.675c0.721,-0.348 0.68,-0.411 1.401,-0.744c2.871,-1.326 2.855,-1.358 3.114,-1.449c1.561,-0.549 1.78,-0.357 1.832,-0.36c0.161,-0.011 0.313,-0.096 0.474,-0.1c0.655,-0.015 0.898,0.421 0.939,0.496c0.886,1.592 -0.824,2.351 -0.862,2.38c-0.378,0.292 -0.3,0.364 -0.199,0.831c0.221,1.023 0.099,1.031 0.15,1.329c0.021,0.12 0.068,0.255 0.169,0.323c0.189,0.13 0.447,0.121 0.646,0.235c0.069,0.04 0.045,0.18 0.12,0.205c0.142,0.048 0.301,-0.033 0.45,-0.015c0.541,0.065 1.156,0.688 1.281,1.064c0.211,0.635 -0.126,0.668 0.055,1.305c0.075,0.263 0.151,0.209 0.689,0.6c0.556,0.405 0.651,0.668 0.678,0.743c0.043,0.121 0.014,0.263 0.069,0.378c0.035,0.073 0.045,0.066 0.648,0.709c0.571,0.61 0.497,0.677 0.562,0.708c0.101,0.048 0.114,-0.183 0.878,-0.007c0.525,0.121 0.934,0.303 0.939,0.304c0.446,0.117 2.268,0.002 3.077,0.289c0.163,0.058 0.313,0.153 0.48,0.202c0.089,0.026 5.605,0.613 6.721,0.699c0.728,0.057 0.708,0.151 0.912,0.186c0.156,0.026 0.317,-0.004 0.474,0.013c0.069,0.007 0.475,0.052 0.831,0.232c0.175,0.088 0.328,0.217 0.504,0.303c0.805,0.398 1.937,-0.113 3.122,0.033c0.297,0.037 0.59,0.111 0.889,0.135c0.425,0.034 1.443,-0.328 2.703,-0.082c0.54,0.106 0.892,0.3 0.909,0.304c0.134,0.033 0.134,-0.04 0.892,0.106c0.83,0.16 0.751,0.351 0.916,0.396c0.156,0.043 0.321,-0.047 0.482,-0.042c0.141,0.004 0.279,0.05 0.419,0.069c2.031,0.277 2.043,0.12 2.217,0.154c0.172,0.034 0.304,0.189 0.475,0.224c0.018,0.004 0.745,-0.099 1.776,0.122c1.428,0.305 1.484,0.129 2.78,0.816c0.77,0.408 0.755,0.432 0.825,0.462c0.622,0.274 2.544,-0.197 4.479,-0.111c1.138,0.05 1.046,0.408 1.806,0.522c0.071,0.011 0.807,0.121 0.891,0.113c0.268,-0.025 0.721,-0.554 1.022,-0.727c0.871,-0.501 0.938,-0.321 1.002,-0.378c0.31,-0.272 0.15,-1.786 1.902,-1.766c0.892,0.011 0.803,-0.262 1.165,-1.074c0.031,-0.071 0.111,-0.114 0.138,-0.186c0.047,-0.124 0.041,-0.263 0.082,-0.389c0.04,-0.124 0.285,-0.896 0.991,-1.296c1.289,-0.731 1.783,-0.383 1.785,-0.383c0.801,-0.047 0.517,-1.06 2.68,-1.143c0.478,-0.018 0.466,-0.041 0.923,-0.154c0.014,-0.003 0.935,-0.153 1.327,-0.213c1.244,-0.189 1.245,-0.015 1.352,-0.031c0.171,-0.026 0.307,-0.173 0.478,-0.199c1.618,-0.245 2.935,0.855 3.151,0.841c0.606,-0.039 -0.043,-0.793 1.695,-2.013c1.174,-0.825 2.6,-0.622 2.782,-0.628c1.361,-0.046 1.949,-1.019 3.147,-0.647c1.043,0.325 0.832,0.666 0.922,0.654c0.215,-0.031 0.285,-0.368 0.289,-0.585c0.003,-0.178 -0.209,-0.293 -0.27,-0.46c-0.102,-0.281 -0.07,-1.239 -0.066,-1.347c0.059,-1.778 2.073,-2.439 2.519,-2.843c0.088,-0.079 0.09,-0.219 0.148,-0.322c0.04,-0.07 0.407,-0.717 0.519,-0.858c0.062,-0.078 0.192,-0.083 0.252,-0.163c0.072,-0.098 0.059,-0.24 0.123,-0.343c0.239,-0.379 1.515,-0.852 1.75,-1.42c0.189,-0.456 0.115,-0.523 0.538,-0.78c0.33,-0.201 1.779,0.051 2.384,-0.294c0.314,-0.18 0.294,-0.2 0.475,-0.505c0.605,-1.02 -0.285,-1.114 -0.038,-1.914c0.045,-0.145 0.255,-0.25 0.222,-0.398c-0.046,-0.203 -0.314,-0.284 -0.416,-0.465c-0.052,-0.092 0.041,-0.406 -0.469,-0.878c-0.066,-0.061 -0.18,-0.057 -0.239,-0.124c-0.255,-0.295 -0.245,-0.739 -0.243,-0.806c0.004,-0.156 0.091,-0.304 0.091,-0.46c-0.001,-0.153 -0.082,-0.297 -0.095,-0.45c-0.049,-0.584 0.4,-1.158 0.441,-1.352c0.084,-0.406 -0.632,-1.599 -0.412,-3.162c0.092,-0.653 0.34,-0.47 0.997,-0.481c0.533,-0.009 0.866,-0.37 1.362,-0.826c0.605,-0.557 0.652,-0.499 0.698,-0.554c0.161,-0.188 0.366,-1.114 0.388,-1.213c0.203,-0.915 0.323,-0.863 0.339,-0.942c0.092,-0.439 -0.004,-0.43 -0.195,-0.831c-0.253,-0.53 -0.239,-0.533 -0.269,-0.573c-0.561,-0.74 -2.117,-0.666 -2.758,-0.941c-1.53,-0.657 -1.509,-1.108 -1.502,-1.265c0.032,-0.726 1.243,-0.642 1.648,-1.729c0.069,-0.185 0.117,-0.378 0.194,-0.56c0.536,-1.262 2.805,-1.005 3.198,-0.772c0.072,0.043 0.067,0.171 0.142,0.208c0.126,0.063 0.286,0.018 0.417,0.069c0.48,0.187 0.902,1.265 0.92,1.276c0.34,0.199 0.828,-0.111 0.889,-0.15c0.947,-0.602 1.048,-0.125 2.16,-0.258c0.83,-0.099 0.819,0.088 0.888,0.071c0.194,-0.046 0.303,-0.266 0.482,-0.354c0.116,-0.057 0.28,0.006 0.381,-0.074c0.146,-0.115 0.278,-0.282 0.305,-0.465c0.005,-0.037 -0.321,-0.559 -0.374,-1.279c-0.011,-0.145 0.006,-0.292 -0.008,-0.437c-0.061,-0.647 -0.864,-1.373 -0.246,-2.212c0.45,-0.611 0.624,-0.554 0.782,-1.859c0.247,-2.042 -0.754,-2.203 -0.798,-2.277c-0.327,-0.551 0.148,-1.747 -0.384,-2.295c-0.289,-0.298 -0.324,-0.25 -0.519,-0.43c-0.084,-0.078 -0.128,-0.194 -0.216,-0.268c-0.078,-0.065 -0.231,-0.048 -0.27,-0.141c-0.06,-0.141 0.108,-0.337 0.015,-0.459c-0.141,-0.186 -0.422,-0.205 -0.617,-0.334c-0.264,-0.174 -0.204,-0.759 -0.615,-1.509c-0.123,-0.225 -0.199,-0.477 -0.344,-0.689c-0.053,-0.077 -0.17,-0.087 -0.236,-0.153c-0.085,-0.085 -0.124,-0.208 -0.208,-0.294c-0.067,-0.068 -0.181,-0.082 -0.237,-0.159c-0.12,-0.164 -0.195,-0.357 -0.278,-0.542c-0.053,-0.119 -0.072,-0.252 -0.13,-0.37c-0.234,-0.48 -0.958,-0.726 -1.021,-1.752c-0.131,-2.115 0.142,-2.09 0.902,-4.071c0.77,-2.006 -0.412,-2.505 -0.545,-3.528c-0.109,-0.838 0.081,-0.823 0.058,-0.89c-0.034,-0.096 -0.21,-0.037 -0.288,-0.103c-0.083,-0.071 -0.078,-0.219 -0.166,-0.284c-0.163,-0.12 -0.741,-0.105 -0.806,-0.103c-1.13,0.029 -1.121,0.048 -2.242,-0.03c-0.133,-0.134 -0.366,-0.135 -0.499,-0.269c-0.267,-0.27 -0.084,-0.399 -0.39,-0.627c-0.196,-0.146 -0.251,0.15 -0.448,0.003c-0.118,-0.125 0.006,-0.243 -0.439,-0.468c-0.076,-0.039 -1.174,-0.659 -1.854,-0.535c-0.837,0.152 -0.636,0.853 -1.253,1.518c-0.567,0.612 -0.921,0.448 -0.943,0.457c-0.181,0.072 -0.295,0.267 -0.475,0.34c-0.082,0.033 -0.819,0.04 -0.891,0.041c-3.714,0.033 -4.174,0.155 -5.297,-0.618c-0.462,-0.319 -0.465,-0.301 -0.501,-0.333c-0.071,-0.063 -0.064,-0.19 -0.14,-0.247c-0.103,-0.077 -0.248,-0.07 -0.362,-0.129c-0.257,-0.132 -0.93,-0.688 -1.008,-0.752c-0.436,-0.36 -0.387,-0.407 -0.425,-0.438c-0.101,-0.083 -0.243,-0.101 -0.357,-0.166c-0.169,-0.097 -0.316,-0.228 -0.488,-0.32c-0.391,-0.209 -0.408,-0.121 -0.85,-0.068c-0.149,0.018 -0.313,-0.043 -0.451,0.017c-0.18,0.079 -0.274,0.296 -0.453,0.378c-0.047,0.022 -0.635,0.047 -0.901,-0.006c-0.084,-0.017 -2.776,-0.898 -3.06,-1.044c-0.07,-0.036 -0.112,-0.116 -0.185,-0.145c-0.377,-0.146 -0.4,-0.058 -0.77,-0.23c-0.182,-0.084 -0.353,-0.19 -0.536,-0.273c-1.141,-0.516 -2.94,-1.032 -3.484,-0.794c-0.179,0.079 -0.309,0.247 -0.489,0.326Z" style="fill:#2f6f5e;stroke:#2f6f5e;stroke-width:1px;"/><path d="M83.106,259.2l-2.695,0c0.003,-0.229 -0.084,-0.453 -0.08,-0.681c0.009,-0.611 0.861,-0.806 -0.485,-2.608c-1.001,-1.341 -2.547,-1.257 -1.904,-2.431c0.649,-1.184 1.163,-1.768 0.205,-2.094c-1.101,-0.374 -1.399,0.503 -2.564,-0.222c-1.646,-1.026 -1.78,-2.642 -3.238,-3.453c-0.341,-0.19 -1.568,-0.524 -1.061,-2.694c0.057,-0.245 0.634,-2.715 0.557,-3.099c-0.132,-0.664 -1.703,-0.216 -1.916,0.382c-0.137,0.384 0.153,0.675 -0.859,1.74c-1.746,1.839 -2.088,1.647 -2.607,1.854c-1.711,0.682 1.301,1.831 -0.019,3.614c-0.686,0.926 -1.819,0.712 -2.434,2.353c-0.554,1.476 -0.514,1.67 -2.022,2.144c-1.391,0.436 -0.915,1.487 -1.283,1.875c-0.387,0.408 -0.462,0.255 -1.004,0.135c-0.884,-0.195 -0.857,-0.314 -1.755,-0.361c-1.555,-0.082 -1.118,-1.288 -2.673,-1.358c-1.374,-0.062 -2.998,2.073 -4.929,1.835c-0.973,-0.12 -1.028,-0.128 -1.871,0.537c-1.447,1.143 -1.701,0.521 -2.159,0.403c-0.992,-0.254 -1.135,-0.039 -1.792,-0.824c-1.433,-1.712 -0.516,-2.204 -1.844,-4.006c-0.562,-0.762 -1.287,-0.208 -1.689,-0.568c-0.538,-0.481 0.397,-1.615 -0.58,-2.081c-0.477,-0.228 -1.158,-0.268 -1.036,-2.298c0.073,-1.226 1.031,-2.081 0.882,-2.637c-0.168,-0.627 -1.581,-1.226 -0.907,-2.403c0.062,-0.108 0.715,-1.072 -0.23,-1.323c-0.187,-0.05 -3.917,-0.81 -4.074,-0.815c-0.146,-0.005 -0.547,-0.017 -1.724,0.59c-2.888,1.491 -4.335,1.974 -3.522,3.353c0.282,0.478 1.913,1.022 -0.179,2.744c-2.001,1.647 -2.831,1.718 -3.115,1.742c-1.612,0.138 -1.612,-0.064 -3.228,0.049c-0.025,-0.145 0.028,-0.296 0.002,-0.441c-0.03,-0.168 -0.177,-0.181 -0.156,-0.86c0.027,-0.882 0.034,-0.877 0.174,-1.747c1.707,-0.342 2.6,-0.551 2.883,-1.354c0.268,-0.758 0.261,-0.753 0.602,-1.472c0.752,-1.587 -1.113,-1.302 -1.096,-3.058c0.013,-1.368 1.276,-2.056 1.237,-2.694c-0.019,-0.31 -0.173,-0.603 -0.18,-0.914c-0.015,-0.59 0.118,-0.62 4.431,-3.816c0.893,-0.662 1.775,-1.027 1.913,-2.014c0.01,-0.073 -0.082,-0.61 0.293,-1.27c0.848,-1.493 -1.063,-2.884 1.689,-4.069c0.886,-0.381 3.058,-0.955 3.479,-1.878c0.116,-0.255 0.101,-0.556 0.212,-0.814c0.407,-0.944 1.937,-1.269 4.053,-3.525c1.097,-1.169 0.195,-1.654 0.896,-2.267c0.058,-0.051 0.083,-0.006 0.858,-0.445c1.395,-0.791 -0.017,-0.846 -0.084,-0.84c-0.022,0.002 -0.839,0.158 -0.912,0.172c-1.331,0.254 -1.169,-0.521 -0.606,-1.758c0.421,-0.925 0.52,-0.852 1.219,-1.588c0.557,-0.586 0.254,-1.435 1.169,-1.625c0.21,-0.043 2.959,-0.239 3.664,0.552c0.517,0.579 -0.468,2.116 1.724,1.706c1.224,-0.229 3.775,-0.314 3.86,-1.113c0.007,-0.065 -1.162,-0.877 0.209,-1.903c0.475,-0.356 0.403,-0.411 0.69,-0.924c0.605,0.394 0.642,0.335 1.148,0.84c-0.231,0.162 -0.266,0.099 -0.611,0.43c-0.722,0.692 -0.393,1.116 -0.323,1.455c0.357,1.737 -1.732,1.816 -1.789,1.831c-0.38,0.098 -0.561,0.294 -1.809,0.326c-1.74,0.044 -2.017,0.803 -3.266,-0.164c-1.002,-0.776 -0.69,-0.979 -0.812,-1.531c-0.073,-0.329 -0.114,-0.342 -0.452,-0.389c-0.154,-0.021 -0.317,-0.082 -0.859,-0.075c-1.101,0.014 -1.009,0.299 -1.343,0.905c-0.131,0.237 -1.591,1.517 -1.425,1.834c0.05,0.095 0.084,0.051 0.957,0.066c0.793,0.014 1.358,0.594 1.424,0.757c0.499,1.235 -1.467,1.707 -1.749,2.314c-0.136,0.293 0.296,0.509 -0.395,1.443c-0.196,0.265 -0.218,0.238 -0.439,0.491c-0.072,0.082 -0.098,0.199 -0.175,0.277c-0.072,0.073 -0.188,0.091 -0.26,0.164c-0.08,0.082 -0.106,0.207 -0.186,0.289c-0.081,0.083 -0.204,0.114 -0.286,0.195c-0.072,0.07 -0.097,0.178 -0.168,0.249c-0.253,0.253 -0.7,0.572 -0.764,0.618c-0.382,0.273 -0.38,0.265 -0.764,0.535c-1.099,0.773 -1.183,0.947 -1.239,1.064c-0.295,0.614 0.164,1.287 -2.082,2.447c-1.332,0.688 -1.942,0.486 -2.807,1.156c-0.61,0.472 -0.381,0.603 -0.315,1.366c0.143,1.659 -0.329,1.851 -0.446,2.271c-0.063,0.228 0.308,1.323 -0.972,2.275c-0.096,0.071 -0.228,0.08 -0.325,0.151c-0.078,0.056 -0.111,0.16 -0.185,0.22c-0.286,0.232 -4.642,3.225 -4.784,3.626c-0.025,0.07 0.25,0.874 0.11,1.239c-0.279,0.726 -1.989,2.167 -0.966,3.113c0.073,0.068 0.187,0.078 0.261,0.145c0.079,0.071 0.112,0.184 0.187,0.259c0.076,0.076 0.195,0.103 0.262,0.187c0.619,0.769 0.118,1.385 -0.275,2.317c-0.511,1.213 0.327,2.093 -1.914,2.717c-0.072,0.02 -0.73,0.203 -0.849,0.383c-0.101,0.153 -0.129,0.77 -0.071,0.856c0.108,0.16 1.394,0.219 1.795,0.147c0.772,-0.14 2.272,-1.406 2.294,-1.426c0.4,-0.372 0.487,-0.428 0.245,-0.914c-0.572,-1.147 -0.901,-1.176 -0.427,-2.37c0.162,-0.408 0.352,-1.17 1.865,-1.804c0.858,-0.359 0.813,-0.434 0.888,-0.462c1.698,-0.649 2.289,-1.337 3.161,-1.437c0.752,-0.086 4.838,0.831 5.445,1.022c1.839,0.578 0.373,2.451 0.393,2.767c0.049,0.784 1.832,1.14 0.623,3.192c-1.246,2.115 -0.047,2.547 0.26,2.735c1.137,0.697 0.203,1.571 1.13,1.95c0.661,0.271 0.671,0.289 1.414,1.281c0.135,0.224 0.537,0.631 0.714,1.605c0.051,0.278 0.118,0.555 0.137,0.837c0.01,0.142 -0.111,0.295 -0.051,0.424c0.044,0.095 0.221,0.031 0.297,0.102c0.038,0.035 0.26,0.711 0.909,0.852c0.011,0.002 0.393,0.012 0.864,0.147c0.517,0.148 0.61,0.284 1.463,-0.429c1.399,-1.169 1.729,-0.12 3.455,-0.687c0.121,-0.04 0.255,-0.043 0.367,-0.105c0.087,-0.048 0.033,-0.127 1.029,-0.683c1.21,-0.675 1.879,-0.966 2.681,-0.785c0.66,0.149 0.964,0.594 0.98,0.602c0.086,0.042 0.188,-0.119 0.275,-0.081c0.058,0.025 0.527,0.559 1.018,0.693c0.444,0.121 1.234,0.305 1.342,0.331c0.656,0.153 0.517,-0.197 0.803,-0.805c0.167,-0.355 0.641,-0.659 0.642,-0.659c0.061,-0.015 0.127,0.076 0.183,0.048c0.084,-0.043 0.089,-0.177 0.168,-0.227c0.203,-0.128 1.349,-0.148 1.651,-0.991c0.06,-0.168 0.353,-1.892 1.898,-2.667c2.35,-1.179 -0.407,-2.117 -0.099,-3.581c0.116,-0.551 1.291,-0.97 1.423,-1.018c0.103,-0.037 1.102,-0.394 1.274,-0.5c0.077,-0.047 0.082,-0.164 0.148,-0.225c0.085,-0.078 0.21,-0.104 0.293,-0.183c0.074,-0.07 0.096,-0.183 0.168,-0.256c0.063,-0.064 0.166,-0.08 0.227,-0.146c0.559,-0.606 0.616,-1.117 0.629,-1.226c0.032,-0.283 -0.167,-1.086 0.904,-1.432c1.972,-0.636 3.594,-1.051 3.289,1.461c-0.368,3.029 -1.173,3.654 -0.028,4.353c0.912,0.557 0.967,0.828 0.993,0.855c0.07,0.075 0.251,0.001 1.137,1.516c0.701,1.198 1.56,1.197 1.709,1.161c0.162,-0.039 0.63,-0.565 1.377,-0.162c1.584,0.853 2.476,1.085 1.537,2.66c-0.163,0.273 -0.396,0.515 -0.493,0.818c-0.023,0.071 -0.084,0.261 0.557,0.741c0.163,0.122 0.33,-0.042 1.422,1.594c1.027,1.538 0.643,2.037 0.687,2.113c0.071,0.122 0.308,0.066 0.38,0.188c0.309,0.328 0.617,0.656 0.926,0.983Z" style="fill:#2f6f5e;stroke:#2f6f5e;stroke-width:1px;"/><path d="M75.469,-0l1.797,0c0.005,0.253 0.167,0.486 0.172,0.739c0.004,0.193 -0.435,1.246 -0.479,1.352c-0.252,0.604 -1.273,0.995 -0.692,2.23c0.405,0.862 1.244,0.592 1.899,0.401c2.444,-0.71 2.487,-0.262 6.727,0.099c0.317,0.027 2.592,0.063 4.394,0.996c0.366,0.189 0.625,0.569 0.666,0.629c0.143,0.21 0.296,0.852 1.237,0.509c0.658,-0.24 0.632,-0.438 1.326,-0.307c0.237,0.045 0.53,0.408 1.288,-0.224c0.602,-0.502 1.382,-1.642 2.01,-0.924c0.193,0.22 0.191,0.865 0.714,1.108c0.917,0.427 1.572,0.17 2.491,1.077c0.048,0.047 0.433,0.427 0.705,0.455c0.041,0.004 1.029,-0.594 1.719,0.235c0.082,0.098 0.123,0.226 0.205,0.325c-0.345,0.228 -0.691,0.455 -1.036,0.683c-0.904,0.04 -1.013,0.351 -1.692,-0.25c-0.819,-0.725 -0.754,-0.87 -1.914,-1.159c-1.136,-0.283 -1.966,-0.829 -2.236,-0.761c-0.445,0.112 -1.665,1.31 -1.847,1.337c-0.131,0.019 -0.12,-0.024 -0.725,-0.397c-0.401,-0.248 -1.146,0.105 -1.454,0.163c-1.58,0.297 -1.163,-0.893 -2.177,-1.514c-1.09,-0.668 -3.627,-0.804 -3.66,-0.807c-1.863,-0.187 -4.628,-0.638 -4.932,-0.365c-0.362,0.324 0.25,1.3 0.31,1.397c0.971,1.551 0.615,1.754 1.406,2.687c0.051,0.061 0.37,0.436 0.548,0.827c0.486,1.065 0.586,1.04 1.281,1.843c1.413,1.632 -0.148,3.445 -0.101,4.115c0.019,0.262 0.856,0.37 1.1,-0.038c0.437,-0.729 0.315,-0.961 0.832,-0.946c0.363,0.01 0.367,0.071 0.488,0.412c0.366,1.033 -0.145,1.42 -0.285,1.566c-2.119,2.228 -2.728,1.644 -4.269,1.983c-0.628,0.138 -0.567,0.897 -0.696,1.073c-0.338,0.462 -0.964,0.48 -1.034,0.509c-0.049,0.021 -0.322,0.352 -0.318,0.378c0.105,0.792 1.096,0.54 1.197,0.514c1.274,-0.325 1.261,-0.368 1.372,-0.394c0.533,-0.121 1.136,0.172 1.25,0.279c1.431,1.339 -0.321,3.145 0.19,3.871c0.509,0.724 1.06,0.098 1.854,1.353c1.571,2.482 -1.364,2.913 -1.4,2.976c-0.072,0.125 -0.082,0.16 0.671,1.678c0.61,1.229 0.969,0.764 2.328,0.94c1.728,0.224 2.309,-0.086 3.293,0.62c1.605,1.152 1.778,1.065 2.537,2.894c0.579,1.394 1.281,1.418 1.731,2.275c0.582,1.11 -0.464,2.398 4.143,3.931c0.101,0.034 1.477,0.491 0.606,1.185c-0.498,0.397 -0.551,0.14 -1.131,-0.114c-1.62,-0.707 -3.38,-1.309 -4.058,-2.753c-0.653,-1.391 -3.494,-5.193 -3.633,-5.33c-0.155,-0.152 -0.718,-0.706 -2.593,-0.805c-0.157,-0.008 -0.311,0.072 -0.468,0.063c-0.292,-0.247 -0.584,-0.495 -0.875,-0.742c-0.19,-0.038 -0.334,-0.216 -0.524,-0.254c-0.279,-0.056 -0.571,0.007 -0.854,-0.022c-1.199,-0.123 -1.609,-1.928 -2.471,-3.404c-0.98,-1.679 0.663,-1.347 1.203,-1.447c0.094,-0.017 1.154,-0.214 0.626,-1.012c-0.231,-0.349 -0.95,-0.537 -1.298,-0.791c-1.895,-1.384 -0.256,-2.949 -0.426,-3.766c-0.014,-0.069 -0.275,-0.379 -0.324,-0.393c-0.342,-0.097 -2.099,0.462 -2.215,0.466c-0.848,0.026 -2.96,-1.662 -1.01,-3.405c0.831,-0.743 0.505,-1.034 0.955,-1.276c0.646,-0.349 0.68,-0.217 1.411,-0.287c0.103,-0.01 1.23,-0.118 1.276,-0.175c0.072,-0.09 -0.019,-0.231 -0.04,-0.345c-0.117,-0.62 -0.919,-0.892 -0.138,-2.119c1.368,-2.149 -0.075,-2.702 -0.688,-3.722c-0.517,-0.859 -0.474,-0.892 -1.2,-1.58c-0.031,-0.142 -0.049,-0.129 -0.081,-0.273c-0.045,-0.203 -0.025,-0.201 -0.069,-0.405c-0.297,-1.368 -0.946,-1.753 -1.357,-2.682c-0.729,-1.649 -1.529,0.376 -3.077,-0.11c-0.522,-0.164 -0.604,-0.348 -0.966,0.056c-0.286,0.32 -0.012,2.659 -0.837,2.641c-0.281,-0.006 -0.736,-0.053 -0.359,-3.494c0.184,-1.683 1.722,-4.796 1.789,-5.378c0.027,-0.233 -0.132,-0.463 -0.105,-0.697Z" style="fill:#2f6f5e;stroke:#2f6f5e;stroke-width:1px;"/><path d="M83.555,259.2l-0.449,0c-0.309,-0.328 -0.617,-0.656 -0.926,-0.983c0.138,-0.123 0.233,-0.018 0.548,-0.486c1.054,-1.561 -0.172,-1.695 -0.599,-2.748c-0.277,-0.684 -0.086,-0.705 0.08,-1.847c0.154,-1.06 0.257,-1.036 0.709,-1.507c0.079,-0.082 0.121,-0.197 0.201,-0.278c0.063,-0.064 0.17,-0.079 0.222,-0.152c0.187,-0.26 0.178,-1.031 1.942,-2.63c0.655,-0.594 1.953,-1.584 2.317,-3.519c0.24,-1.278 -0.69,-2.848 -0.533,-4.053c0.244,-1.871 2.045,-2.158 2.79,-1.815c0.039,0.018 0.726,0.521 0.861,0.572c0.139,0.053 0.299,0.035 0.438,0.089c0.727,0.281 0.643,0.419 0.78,1.176c0.187,1.034 -0.524,2.093 1.41,3.712c0.448,0.375 2.373,0.588 2.728,0.257c0.109,-0.102 0.457,-0.838 0.907,-0.978c0.313,-0.097 0.643,-0.133 0.959,-0.222c1.125,-0.32 2.386,-1.393 3.559,-0.509c0.069,0.052 0.097,0.146 0.159,0.206c0.136,0.133 0.448,0.21 0.595,1.124c0.102,0.637 -0.113,0.751 -0.086,0.81c0.082,0.175 0.29,0.257 0.452,0.362c0.087,0.056 0.211,0.047 0.288,0.116c0.133,0.12 0.623,1.278 0.625,1.279c0.081,0.041 0.147,-0.107 0.227,-0.15c0.231,-0.126 0.744,-0.188 0.338,-1.042c-0.34,-0.714 -0.897,-1.303 -0.469,-2.349c0.253,-0.616 0.521,-0.795 -0.074,-1.094c-0.09,-0.045 -0.196,-0.046 -0.289,-0.083c-1.109,-0.442 -1.137,-1.302 -1.142,-1.45c-0.043,-1.308 0.745,-4.075 1.576,-4.591c0.552,-0.342 2.059,-0.897 2.702,-0.659c0.7,0.258 0.803,1.113 0.817,1.23c0.071,0.583 0.041,0.64 0.541,0.961c0.384,0.246 0.408,0.155 0.988,0.23c1.156,0.148 1.15,0.172 1.313,0.138c0.212,-0.044 0.303,-0.139 0.323,-0.16c0.119,-0.124 0.001,-0.177 0.116,-0.297c0.033,-0.16 0.066,-0.321 0.098,-0.481c-0.085,-0.095 -0.123,-0.226 -0.208,-0.321c-0.252,-0.282 -1.162,-0.597 -1.334,-1.864c-0.196,-1.449 0.28,-1.418 0.357,-3.186c0.045,-1.029 0.814,-2.17 0.816,-2.174c0.078,-0.173 0.08,-0.373 0.158,-0.545c0.37,0.105 0.74,0.209 1.11,0.314c0.749,0.149 0.743,0.159 0.809,0.16c0.442,0.01 0.421,-0.078 0.932,-0.287c1.505,-0.615 2.992,0.088 3.562,1.196c0.15,0.291 0.148,0.292 0.393,0.504c0.064,0.056 0.098,0.15 0.175,0.185c0.063,0.028 0.137,-0.024 0.205,-0.014c0.062,0.009 0.113,0.055 0.173,0.07c0.415,0.101 1.898,0.203 2.184,0.234c0.678,0.074 1.326,0.443 1.75,-0.558c0.827,-1.951 0.034,-2.307 0.847,-3.185c0.604,-0.652 0.757,-0.389 0.857,-0.476c0.3,-0.261 -0.231,-1.173 1.951,-1.666c1.371,-0.31 2.322,-0.063 2.691,-0.019c0.974,0.114 1.111,-0.28 1.357,-0.437c0.921,-0.587 1.578,0.131 2.239,0.007c0.152,-0.028 0.283,-0.137 0.435,-0.156c0.152,-0.02 0.31,0.077 0.459,0.04c0.173,-0.043 0.289,-0.223 0.46,-0.271c0.14,-0.039 0.294,-0.014 0.434,0.021c0.484,0.119 0.452,0.185 1.366,0.717c-0.333,0.228 -0.666,0.456 -1,0.683c-0.628,-0.201 -0.618,-0.354 -1.267,-0.192c-0.476,0.119 -0.435,0.232 -0.918,0.33c-0.637,0.129 -1.113,-0.545 -1.843,0.05c-1.193,0.971 -2.192,-0.091 -3.937,0.294c-1.083,0.239 -0.823,0.654 -1.718,1.316c-0.973,0.721 -0.842,0.865 -0.919,2.079c-0.117,1.862 -1.625,2.721 -1.877,2.767c-0.492,0.089 -4.133,-0.56 -4.49,-0.624c-0.803,-0.143 -1.006,-0.024 -1.2,-0.81c-0.038,-0.153 0.025,-0.321 -0.014,-0.474c-0.074,-0.294 -0.521,-0.719 -1.059,-0.756c-0.7,-0.049 -0.673,0.089 -1.334,0.345c-0.988,0.382 -1.739,-0.02 -2.15,0.187c-0.482,0.244 -0.452,1.467 -0.448,1.6c0.031,1.234 -0.687,1.729 -0.489,2.689c0.173,0.842 0.438,0.653 1.174,1.097c1.289,0.778 -0.121,2.787 -0.333,2.96c-0.579,0.474 -2.925,-0.035 -3.121,-0.088c-0.741,-0.2 -1.51,-0.832 -1.601,-0.978c-0.312,-0.498 0.169,-1.61 -1.114,-1.168c-0.904,0.311 -1.422,1.007 -1.825,3.128c-0.269,1.418 0.426,1.334 1.392,1.751c1.016,0.438 0.818,0.785 0.225,1.716c-0.684,1.073 -0.16,1.142 0.304,2.331c0.672,1.723 -0.906,2.276 -1.893,2.212c-0.768,-0.05 -0.883,-0.048 -1.118,-0.781c-0.185,-0.574 -0.192,-0.573 -0.599,-1.015c-0.475,-0.515 -0.333,-0.587 -0.417,-1.281c-0.01,-0.085 -0.099,-0.82 -0.555,-0.915c-0.557,-0.116 -3.077,0.993 -3.1,1.008c-0.612,0.414 -0.343,1.259 -1.84,1.153c-2.472,-0.174 -3.006,-0.452 -3.602,-1.236c-0.723,-0.951 -1.136,-1.3 -1.205,-2.254c-0.074,-1.013 0.245,-1.216 -0.592,-1.789c-0.528,-0.362 -0.775,-0.824 -1.334,-0.774c-1.58,0.14 -0.285,3.004 -0.182,4.37c0.018,0.234 -0.493,2.708 -1.604,3.618c-0.377,0.309 -0.331,0.342 -0.662,0.696c-0.543,0.581 -0.579,0.537 -1.131,1.105c-0.886,0.912 -0.805,1.333 -1.057,1.674c-0.526,0.71 -0.935,0.536 -1.165,2.345c-0.2,1.577 2.157,1.551 0.689,3.957c-0.484,0.793 -0.249,0.941 -0.293,1.204Z" style="fill:#2f6f5e;stroke:#2f6f5e;stroke-width:1px;"/><path d="M75.083,207.718c-0.18,-0.099 -0.029,-0.221 -0.206,-0.319c-0.025,-0.014 -0.155,-0.086 -0.357,0.008c-0.168,0.078 -0.347,0.189 -0.425,0.356c-0.063,0.136 0.115,0.31 0.052,0.446c-0.119,0.348 -0.238,0.696 -0.356,1.044c-0.557,0.647 -0.545,0.651 -0.602,0.698c-0.515,0.43 -2.478,0.776 -3.133,0.08c-0.225,-0.239 -0.35,-0.557 -0.56,-0.81c-0.182,-0.219 -0.985,-0.386 -1.154,-0.35c-0.352,0.074 -2.125,1.275 -2.77,1.527c-0.445,0.174 -2.07,0.308 -2.251,0.323c-1.089,0.09 -1.451,-0.926 -1.805,-1.082c-0.34,-0.149 -0.34,0.01 -1.693,0.588c-0.463,0.198 -0.462,0.182 -0.932,0.367c-0.074,-0.301 -0.024,-0.3 -0.097,-0.597c-0.064,-0.26 -0.122,-0.233 -0.173,-0.502c-0.017,-0.088 0.044,-0.179 0.028,-0.266c0.063,0.016 0.145,0.348 0.626,0.164c0.04,-0.015 0.752,-0.374 0.84,-0.425c1.949,-1.119 2.618,0.292 2.871,0.473c0.375,0.268 1.585,0.234 2.648,-0.242c1.459,-0.653 1.718,-1.44 3.091,-1.36c1.421,0.083 1.752,1.019 1.897,1.192c0.585,0.697 1.937,0.274 2.108,-0.382c0.135,-0.517 -0.037,-0.498 -0.404,-0.886c-0.405,-0.429 -0.41,-0.415 -0.439,-0.457c-0.092,-0.132 -0.554,-1.121 0.176,-2.083c1.492,-1.967 1.874,-1.89 2.497,-2c1.904,-0.337 2.538,0.351 2.687,0.512c0.802,0.871 0.879,0.788 0.931,0.876c0.36,0.607 -0.275,1.074 0.956,1.653c1.57,0.738 1.574,0.738 1.724,0.748c0.495,0.031 2.817,-1.135 5.351,-0.058c4.575,1.944 4.859,1.46 6.715,3.132c0.647,0.583 1.086,1.198 1.42,1.239c0.243,0.03 1.871,-0.476 2.091,-0.618c0.399,-0.258 0.976,-1.727 1.946,-1.595c0.569,0.078 0.346,0.319 0.486,0.889c0.168,0.685 0.452,0.314 1.317,0.286c1.918,-0.062 1.535,1.312 2.673,1.993c1.39,0.832 1.459,1.013 1.195,2.209c-0.015,0.07 -0.226,1.023 0.548,0.71c0.18,-0.073 0.317,-0.228 0.496,-0.303c0.581,-0.241 1.355,0.101 1.5,0.442c0.202,0.476 0.067,0.483 -0.128,0.96c0,0 -0.298,0.82 -0.324,0.892c-0.058,-0.114 0.143,-0.26 0.085,-0.374c-0.001,-0.001 -0.77,-0.805 -0.771,-0.805c-0.254,-0.095 -0.389,-0.046 -0.42,-0.035c-0.24,0.086 -0.129,0.233 -0.369,0.32c-0.152,0.022 -0.279,0.138 -0.431,0.16c-0.643,0.095 -0.691,0.014 -1.003,-0.56c-0.784,-1.438 0.115,-1.822 -0.313,-2.32c-0.154,-0.179 -0.882,-0.232 -1.502,-1.216c-0.553,-0.879 -0.818,-0.598 -1.235,-0.631c-0.159,-0.012 -0.311,-0.083 -0.47,-0.084c-0.15,-0.002 -0.294,0.066 -0.443,0.075c-0.689,0.04 -1.273,-0.695 -1.352,-0.693c-0.125,0.003 -0.282,0.608 -1.749,0.932c-0.104,0.023 -1.301,0.287 -1.28,0.354c0.014,0.043 0.604,0.37 0.854,1.273c0.484,1.746 0.272,1.784 -0.031,2.29c-0.195,0.325 -0.885,1.188 -0.965,1.288c-0.057,0.071 -0.147,0.113 -0.196,0.19c-0.065,0.102 -0.076,0.23 -0.137,0.334c-0.092,0.158 -0.214,0.298 -0.318,0.448c-0.562,0.81 -0.188,0.915 0.067,1.381c0.134,0.245 0.156,0.346 0.163,0.378c0.092,0.426 0.011,0.43 0.103,0.856c0.046,0.138 -0.035,0.299 0.011,0.437c0.09,0.27 0.274,0.478 0.306,0.514c0.225,0.255 0.296,0.167 0.524,0.425c0.038,0.889 0.052,0.88 0.061,1.779c-0.186,0.36 -0.372,0.721 -0.558,1.081c-0.155,0.011 -0.31,-0.035 -0.465,-0.024c-0.048,0.003 -0.981,0.224 -1.779,0.041c-1.69,-0.388 -0.396,-1.249 -0.641,-2.873c-0.005,-0.032 -0.888,-1.254 1.579,-4.915c0.844,-1.251 1.463,-1.673 1.363,-2.719c-0.091,-0.961 -0.688,-1.461 -0.765,-1.554c-1.688,-2.024 -2.01,-2.74 -4.193,-3.469c-3.139,-1.048 -4.13,-1.751 -5.883,-1.977c-1.263,-0.162 -2.675,1.269 -4.422,0.165c-1.056,-0.667 -1.419,-0.423 -1.995,-1.144c-0.521,-0.652 -0.098,-1.307 -1.178,-1.643c-0.179,-0.056 -0.376,-0.047 -0.549,-0.119c-0.199,-0.082 -0.349,-0.482 -0.861,-0.49c-0.22,-0.003 -1.181,-0.018 -2.144,1.723c-0.447,0.809 0.258,1.047 0.344,1.076c0.481,0.162 0.469,-0.016 0.931,-0.235c0.299,-0.141 0.783,-0.183 0.853,-0.189c0.128,-0.011 1.239,-0.106 1.189,1.088c-0.008,0.181 -0.108,0.349 -0.115,0.53c-0.182,-0.086 -0.421,0.068 -0.603,-0.018c-0.099,-0.047 -0.037,-0.222 -0.098,-0.313c-0.062,-0.092 -0.194,-0.121 -0.256,-0.214Z" style="fill:#2f6f5e;stroke:#2f6f5e;stroke-width:1px;"/><path d="M153.176,18.521c0.065,-0.059 0.178,-0.042 0.242,-0.101c0.26,-0.238 0.093,-0.537 0.071,-0.578c-0.04,-0.072 -0.152,-0.076 -0.207,-0.138c-0.481,-0.537 -0.419,-0.681 0.097,-1.176c0.507,-0.487 0.895,-0.74 0.229,-0.984c-0.13,-0.047 -0.274,-0.04 -0.407,-0.077c-1.441,-0.405 -0.264,-2.155 -0.161,-2.309c0.935,-1.391 0.266,-1.867 1.64,-2.826c0.877,-0.612 2.607,-0.974 2.94,-0.622c0.453,0.479 -0.599,1.712 -0.052,2.288c0.579,0.61 1.624,-0.329 3.723,0.285c0.148,0.043 1.281,0.375 0.683,1.798c-0.5,1.19 -1.502,1.476 -1.182,2.33c0.269,0.721 0.741,0.249 2.018,1.608c0.241,0.257 0.215,0.268 0.432,0.537c-0.084,0.075 -1.054,0.936 -1.054,0.936c-0.194,0.002 -0.3,-0.251 -0.467,-0.35c-0.14,-0.083 -0.309,-0.109 -0.45,-0.192c0.067,-0.144 0.226,-0.23 0.293,-0.374c0.128,-0.276 0.046,-0.301 -0.225,-0.444c-0.404,-0.214 -0.87,-0.351 -1.285,-0.602c-0.9,-0.546 -1.638,-0.127 -1.9,-0.698c-0.127,-0.278 0.155,-0.616 -0.898,-1.367c-0.612,-0.436 -0.631,-0.556 -1.363,-0.365c-0.068,0.018 -0.48,0.125 -0.695,0.544c-0.51,0.993 -0.522,1.087 -0.534,1.191c-0.089,0.727 0.372,0.628 0.416,1.352c0.061,0.985 -0.902,0.927 -1.717,1.35c-0.062,-0.338 -0.124,-0.677 -0.187,-1.015Z" style="fill:#2f6f5e;stroke:#2f6f5e;stroke-width:1px;"/><path d="M95.331,223.908c0.193,0.066 0.279,0.323 0.472,0.389c0.059,0.02 0.049,-0.188 0.782,-0.063c2.745,0.467 2.885,0.584 3.08,0.747c0.41,0.343 0.469,1.099 0.477,1.202c0.084,1.088 -0.074,1.347 0.964,1.672c2.485,0.778 2.056,1.872 3.101,1.786c1.275,-0.105 1.481,-0.589 1.533,-0.714c0.152,-0.36 -0.046,-1.067 1.111,-1.574c0.572,-0.25 0.622,-0.211 0.93,-0.749c0.4,-0.699 1.56,-1.315 2.575,-0.264c1.212,1.256 1.247,1.585 1.143,3.262c-0.37,-0.105 -0.74,-0.209 -1.11,-0.314c0.058,-0.928 0.211,-1.003 -0.377,-1.721c-0.032,-0.038 -0.338,-0.412 -0.421,-0.457c-0.556,-0.3 -0.679,-0.18 -0.913,0.406c-0.354,0.883 -0.803,0.729 -1.31,0.916c-0.641,0.237 -0.37,1.251 -0.978,1.617c-0.299,0.181 -1.81,0.651 -2.157,0.686c-1.134,0.116 -1.763,-0.964 -2.002,-1.2c-0.409,-0.402 -1.584,-0.663 -2.123,-0.946c-1.801,-0.946 -0.506,-2.054 -1.339,-2.785c-0.094,-0.083 -0.108,-0.058 -1.251,-0.29c-1.272,-0.258 -1.264,-0.289 -1.376,-0.301c-0.696,-0.073 -0.688,-0.082 -1.366,-0.226c0.186,-0.36 0.372,-0.721 0.558,-1.081Z" style="fill:#2f6f5e;stroke:#2f6f5e;stroke-width:1px;"/><path d="M161.27,18.949c-0.642,-0.184 -0.636,-0.394 -1.267,-0.187c-0.304,0.099 -2.246,1.181 -2.32,1.237c-0.472,0.357 -0.526,0.596 -0.594,0.68c-0.189,0.234 -0.859,0.606 -1.208,0.664c-0.732,0.121 -0.743,0.001 -1.253,-0.532c-0.843,-0.881 -0.979,-0.703 -1.044,-0.785c-0.112,-0.141 -0.11,-0.351 -0.222,-0.491c0.815,-0.422 1.778,-0.365 1.717,-1.35c-0.045,-0.724 -0.505,-0.626 -0.416,-1.352c0.013,-0.104 0.024,-0.198 0.534,-1.191c0.215,-0.419 0.627,-0.526 0.695,-0.544c0.732,-0.19 0.751,-0.071 1.363,0.365c1.053,0.751 0.771,1.089 0.898,1.367c0.261,0.572 0.999,0.153 1.9,0.698c0.415,0.251 0.881,0.388 1.285,0.602c0.271,0.143 0.353,0.168 0.225,0.444c-0.067,0.144 -0.226,0.23 -0.293,0.374Z" style="fill:#2f6f5e;stroke:#2f6f5e;stroke-width:1px;"/><path d="M87.126,34.619c-0.63,0.337 -0.635,0.322 -0.68,0.364c-0.544,0.51 -0.446,0.98 -1.994,0.739c-3.323,-0.517 -3.19,-0.921 -3.993,-1.445c-0.968,-0.631 -1.108,-0.174 -1.581,0.885c-1.141,2.552 -1.161,2.541 -1.247,2.768c-0.767,2.015 0.493,3.168 0.613,4.068c0.019,0.146 -0.062,0.303 -0.042,0.449c-0.301,0.035 -0.6,0.111 -0.902,0.146c-0.028,-0.179 0.002,-0.414 -0.026,-0.593c-0.078,-0.501 -0.566,-0.444 -0.875,-1.802c-0.304,-1.334 -0.274,-1.742 1.666,-5.877c0.185,-0.395 0.494,-1.214 1.395,-1.471c1.442,-0.411 1.141,0.792 3.224,1.4c1.846,0.539 2,0.729 3.568,-0.374c0.292,0.247 0.584,0.495 0.875,0.742Z" style="fill:#2f6f5e;stroke:#2f6f5e;stroke-width:1px;"/><path d="M79.53,10.567c-0.258,0.402 -0.639,2.113 -3.128,0.383c-0.694,-0.482 -0.872,-0.52 -0.664,-1.342c0.148,-0.581 0.428,-1.14 1.977,-1.08c1.965,0.076 1.747,1.314 1.815,2.039Z" style="fill:#2f6f5e;stroke:#2f6f5e;stroke-width:1px;"/><path d="M168.871,28.801c0.14,0.096 0.31,0.141 0.449,0.237c0.064,0.044 0.445,0.306 0.773,0.58c0.098,0.082 0.443,0.636 0.457,0.719c0.023,0.137 -0.216,0.807 -0.304,0.876c-0.188,0.148 -1.406,0.045 -2.165,0.562c-0.842,0.574 -1.44,0.358 -1.096,-0.601c0.311,-0.868 1.275,-0.821 1.579,-1.721c0.117,-0.347 0.152,-0.323 0.306,-0.652Z" style="fill:#2f6f5e;stroke:#2f6f5e;stroke-width:1px;"/><path d="M71.466,43.435c0.122,0.009 0.707,-0.658 0.514,-1.122c-0.042,-0.101 0.315,-0.104 0.29,0.002c-0.045,0.19 -0.144,1.259 0.384,1.654c0.99,0.74 -0.081,2.968 -0.81,1.649c-0.196,-0.355 -0.278,-0.698 -0.897,-0.866c-0.491,-0.133 -0.53,-0.071 -0.648,-0.234c-0.173,-0.239 0.251,-0.603 0.294,-0.64c0.059,-0.051 0.064,-0.033 0.873,-0.443Z" style="fill:#2f6f5e;stroke:#2f6f5e;stroke-width:1px;"/><path d="M94.326,222.59c-0.055,0.817 0.062,0.864 -0.201,1.161c-0.208,0.234 -1.014,0.377 -1.102,-0.27c-0.003,-0.019 0.066,-0.638 -0.13,-1.335c-0.037,-0.132 -0.353,-1.256 -0.18,-1.701c0.478,-1.229 0.739,-0.168 0.746,-0.108c0.05,0.442 -0.051,0.439 0.001,0.884c0.034,0.294 0.115,0.25 0.386,0.522c0.274,0.275 0.223,0.308 0.481,0.849Z" style="fill:#2f6f5e;stroke:#2f6f5e;stroke-width:1px;"/><path d="M104.446,19.046c0.194,-0.011 0.377,-0.104 0.571,-0.115c0.57,-0.032 0.647,0.015 0.694,0.044c0.295,0.18 0.011,0.388 0.309,0.57c-0.209,0.312 -0.426,0.323 -0.737,1.386c-0.017,0.058 -0.181,0.619 -0.279,0.705c-0.048,0.042 -0.39,0.34 -0.783,0.147c-0.622,-0.307 -0.097,-1.677 -0.045,-1.812c0.175,-0.455 0.134,-0.46 0.269,-0.924Z" style="fill:#2f6f5e;stroke:#2f6f5e;stroke-width:1px;"/><path d="M121.783,17.781c-0.118,0.052 -0.024,0.142 -0.142,0.194c-0.027,0.012 -0.031,0.014 -0.374,0.032c-1.057,0.057 -1.175,0.163 -1.858,-0.657c-0.291,-0.35 -0.148,-0.393 -0.169,-0.549c-0.011,-0.081 -0.112,-0.156 -0.081,-0.232c0.193,-0.468 1.149,-0.283 1.25,-0.264c0.234,0.045 1.124,0.12 1.314,0.992c0.035,0.159 0.025,0.325 0.06,0.484Z" style="fill:#2f6f5e;stroke:#2f6f5e;stroke-width:1px;"/><path d="M39.435,156.636c0.202,-0.104 0.344,-0.303 0.545,-0.407c0.472,-0.242 0.499,-0.036 0.751,0.434c0.058,0.109 0.112,0.224 0.137,0.345c0.029,0.144 -0.016,0.297 0.022,0.439c0.049,0.183 0.174,0.339 0.235,0.518c0.045,0.131 0.085,0.269 0.084,0.408c-0.002,0.151 -0.094,0.292 -0.093,0.442c0.001,0.417 0.105,0.398 0.095,0.433c-0.083,0.292 -0.268,0.172 -0.35,0.463c-0.166,-0.262 -0.208,-0.219 -0.376,-0.485c-0.019,-0.03 -0.096,-0.152 -0.184,-0.4c-0.394,-1.114 -0.325,-1.139 -0.865,-2.191Z" style="fill:#2f6f5e;stroke:#2f6f5e;stroke-width:1px;"/><path d="M75.083,207.718c0.062,0.092 0.194,0.121 0.256,0.214c0.061,0.091 -0.001,0.267 0.098,0.313c0.182,0.086 0.421,-0.068 0.603,0.018c-0.044,0.133 -0.053,0.275 -0.097,0.408c-0.333,1.009 -1.145,0.802 -2.153,0.583c0.119,-0.348 0.238,-0.696 0.356,-1.044c0.44,0.228 0.433,0.237 0.475,0.246c0.373,0.076 0.438,-0.182 0.448,-0.22c0.042,-0.167 -0.028,-0.35 0.014,-0.517Z" style="fill:#2f6f5e;stroke:#2f6f5e;stroke-width:1px;"/><path d="M159.456,13.24c0.309,-0.008 0.617,-0.016 0.926,-0.023l0.398,0.098c-0.011,0.261 -0.021,0.522 -0.032,0.783c-0.06,0.072 -0.655,0.792 -0.806,0.845c-0.344,0.121 -0.327,-0.055 -0.359,-0.413c-0.052,-0.589 -0.142,-0.766 -0.148,-0.83c-0.015,-0.152 0.036,-0.307 0.021,-0.459Z" style="fill:#2f6f5e;stroke:#2f6f5e;stroke-width:1px;"/><path d="M149.173,18.682c-0.364,0.514 -0.361,0.51 -0.801,0.967c-0.055,-0.067 -0.684,-0.842 -0.684,-0.842c-0.276,-0.245 -0.427,-0.239 -0.267,-0.576c0.028,-0.058 0.246,-0.517 0.741,-0.315c0.08,0.033 0.114,0.139 0.193,0.173c0.109,0.046 0.255,-0.012 0.351,0.057c0.192,0.139 0.275,0.397 0.466,0.536Z" style="fill:#2f6f5e;stroke:#2f6f5e;stroke-width:1px;"/><path d="M164.351,29.495c0.196,-0.148 0.307,-0.39 0.503,-0.538c0.085,-0.064 0.22,-0.017 0.31,-0.074c0.09,-0.057 0.11,-0.191 0.199,-0.249c0.531,-0.345 0.477,0.071 0.705,0.659c-0.07,0.085 -0.188,0.12 -0.258,0.205c0,0 -0.514,0.802 -0.559,0.871c-0.475,-0.418 -0.467,-0.415 -0.9,-0.875Z" style="fill:#2f6f5e;stroke:#2f6f5e;stroke-width:1px;"/><path d="M144.429,17.647c-0.107,0.1 -0.748,0.695 -1.599,0.886c-0.127,0.028 -0.263,-0.036 -0.39,-0.007c0.015,-0.097 -0.161,-0.16 -0.145,-0.257c0.025,-0.156 0.663,-1.017 0.995,-1.085c0.169,-0.034 0.462,0.034 0.501,0.043c0.06,0.014 0.047,0.031 0.639,0.421Z" style="fill:#2f6f5e;stroke:#2f6f5e;stroke-width:1px;"/><path d="M36.496,229.284c0.009,-0.084 0.105,-0.977 0.249,-1.02c0.18,-0.054 0.356,0.122 0.537,0.171c0.096,0.026 0.229,-0.021 0.294,0.055c0.095,0.113 0.102,1.112 0.076,1.158c-0.102,0.184 -0.303,0.274 -0.336,0.289c-0.237,0.106 -0.263,-0.021 -0.498,0.084c-0.108,-0.245 -0.215,-0.491 -0.323,-0.736Z" style="fill:#2f6f5e;stroke:#2f6f5e;stroke-width:1px;"/><path d="M166.789,28.466c-0.01,-0.145 -0.163,-0.255 -0.173,-0.401c-0.004,-0.053 -0.035,-0.499 0.497,-0.447c0.276,0.027 0.813,0.867 0.862,0.933c-0.063,0.121 -0.086,0.26 -0.149,0.382c-0.38,0.734 -0.641,0.255 -1.036,-0.468Z" style="fill:#2f6f5e;stroke:#2f6f5e;stroke-width:1px;"/><path d="M44.888,251.533c0.611,-0.064 0.643,-0.234 1.114,0.048c0.571,0.341 0.678,0.26 0.914,0.877c0.033,0.085 -0.999,0.247 -1.154,0.169c-0.1,-0.051 -0.046,-0.103 -0.874,-1.093Z" style="fill:#2f6f5e;stroke:#2f6f5e;stroke-width:1px;"/><path d="M158.048,22.655c0.001,0.229 -0.098,0.205 -0.098,0.433c0,0 0.208,0.834 0.227,0.906c-0.149,-0.007 -0.288,-0.09 -0.437,-0.096c-0.733,-0.033 -0.962,0.199 -1.014,-0.294c-0.05,-0.465 -0.013,-0.584 0.451,-0.576c0.157,0.002 0.319,0.144 0.464,0.082c0.187,-0.08 0.221,-0.374 0.408,-0.454Z" style="fill:#2f6f5e;stroke:#2f6f5e;stroke-width:1px;"/><path d="M78.158,9.676c0.017,0.022 0.326,0.038 0.342,0.441c0.028,0.714 -1.071,0.435 -1.317,0.022c-0.169,-0.284 -0.249,-0.414 0.081,-0.483c0.07,-0.015 0.066,0.002 0.894,0.02Z" style="fill:#2f6f5e;stroke:#2f6f5e;stroke-width:1px;"/><path d="M156.274,10.588c0.012,0.174 0.216,0.195 0.058,0.87c-0.016,0.067 -0.145,0.618 -0.52,0.692c-0.555,0.11 -0.421,-0.632 -0.41,-0.696c0.041,-0.23 0.158,-0.382 0.18,-0.41c0.04,-0.052 0.051,-0.034 0.692,-0.456Z" style="fill:#2f6f5e;stroke:#2f6f5e;stroke-width:1px;"/><path d="M158.125,13.773c0.056,0.051 0.701,0.633 0.701,0.633c0.011,0.1 -0.141,0.143 -0.2,0.224c-0.186,0.25 -0.192,0.348 -0.482,0.23c-0.487,-0.199 -0.59,-0.832 -0.361,-0.997c0.096,-0.069 0.247,-0.021 0.343,-0.09Z" style="fill:#2f6f5e;stroke:#2f6f5e;stroke-width:1px;"/><path d="M75.083,207.718c-0.042,0.167 0.028,0.35 -0.014,0.517c-0.01,0.039 -0.075,0.296 -0.448,0.22c-0.042,-0.009 -0.035,-0.018 -0.475,-0.246c0.063,-0.136 -0.115,-0.31 -0.052,-0.446c0.078,-0.168 0.258,-0.278 0.425,-0.356c0.202,-0.094 0.332,-0.022 0.357,-0.008c0.177,0.098 0.027,0.22 0.206,0.319Z" style="fill:#2f6f5e;stroke:#2f6f5e;stroke-width:1px;"/><path d="M124.434,31.008c0.102,0.011 0.182,-0.127 0.284,-0.117c0.101,0.011 0.165,0.119 0.251,0.173c0.354,0.22 0.557,0.105 0.528,0.525c-0.032,0.464 -0.153,0.547 -0.579,0.372c-0.443,-0.182 -0.473,-0.24 -0.493,-0.281c-0.16,-0.316 0.172,-0.352 0.01,-0.672Z" style="fill:#2f6f5e;stroke:#2f6f5e;stroke-width:1px;"/><path d="M165.675,26.726c-0.058,0.103 -0.018,0.244 -0.077,0.347c-0.031,0.054 -0.29,0.511 -0.761,0.145c-0.129,-0.1 -0.156,-0.298 -0.161,-0.461c-0.025,-0.923 0.6,-0.547 0.657,-0.512c0.169,0.101 0.173,0.38 0.341,0.482Z" style="fill:#2f6f5e;stroke:#2f6f5e;stroke-width:1px;"/><path d="M75.974,5.335c-0.137,0.042 -0.101,0.158 -0.486,0.151c-0.961,-0.018 -0.217,-0.983 -0.203,-0.974c0.304,0.189 0.385,0.635 0.689,0.824Z" style="fill:#2f6f5e;stroke:#2f6f5e;stroke-width:1px;"/><path d="M94.43,220.753c0.697,0.972 0.695,0.965 0.702,0.979c0.103,0.186 0.033,0.206 0.138,0.398c-0.228,-0.258 -0.299,-0.171 -0.524,-0.425c-0.032,-0.036 -0.216,-0.245 -0.306,-0.514c-0.046,-0.138 0.035,-0.299 -0.011,-0.437Z" style="fill:#2f6f5e;stroke:#2f6f5e;stroke-width:1px;"/><path d="M224.175,171.816c0.197,0.147 0.252,-0.149 0.448,-0.003c0.306,0.228 0.122,0.357 0.39,0.627c0.133,0.134 0.366,0.135 0.499,0.269c-0.133,-0.056 -0.289,-0.038 -0.422,-0.094c-0.575,-0.244 -0.52,-0.316 -0.914,-0.798Z" style="fill:#2f6f5e;stroke:#2f6f5e;stroke-width:1px;"/><path d="M36.496,229.284c0.108,0.245 0.215,0.491 0.323,0.736c-0.145,-0.066 -0.287,0.272 -0.432,0.206c-0.149,-0.068 -0.109,-0.414 -0.104,-0.45c0.032,-0.274 0.182,-0.218 0.213,-0.492Z" style="fill:#2f6f5e;stroke:#2f6f5e;stroke-width:1px;"/><path d="M159.456,13.24c0.12,-0.084 -0.124,-0.356 -0.003,-0.44c0.084,-0.058 0.434,0.099 0.47,0.115c0.258,0.116 0.204,0.187 0.46,0.302c-0.309,0.008 -0.617,0.016 -0.926,0.023Z" style="fill:#2f6f5e;stroke:#2f6f5e;stroke-width:1px;"/><path d="M160.779,13.315c0.063,0.118 0.319,0.004 0.382,0.122c0.071,0.133 -0.083,0.378 -0.1,0.406c-0.111,0.177 -0.203,0.078 -0.314,0.255c0.011,-0.261 0.021,-0.522 0.032,-0.783Z" style="fill:#2f6f5e;stroke:#2f6f5e;stroke-width:1px;"/></g></svg>