<?xml version="1.0" encoding="UTF-8" standalone="no"?><!DOCTYPE svg PUBLIC "-//W3C//DTD SVG 1.1//EN" "http://www.w3.org/Graphics/SVG/1.1/DTD/svg11.dtd"><svg width="100%" height="100%" viewBox="0 0 793 924" version="1.1" xmlns="http://www.w3.org/2000/svg" xmlns:xlink="http://www.w3.org/1999/xlink" xml:space="preserve" xmlns:serif="http://www.serif.com/" style="fill-rule:evenodd;clip-rule:evenodd;stroke-linejoin:round;stroke-miterlimit:2;"><g id="Hintergrund"><path d="M536.416,115.81c-7.029,-4.793 -14.567,-7.999 -11.655,-3.026c3.596,6.143 -0.391,8.34 5.332,12.603c6.496,2.859 6.387,4.088 9.516,2.939c13.314,-4.89 16.273,22.665 19.978,30.805c3.047,6.696 -0.833,7.131 0.566,12.398c3.988,15.011 4.073,15.316 -0.458,30.233c-2.74,9.02 -19.401,10.49 -3.953,22.476c3.991,3.097 3.262,10.095 9.185,11.806c1.233,0.356 12.986,3.753 12.176,10.449c-0.756,6.254 2.976,5.968 1.78,12.091c-1.169,5.982 0.746,5.978 0.025,11.926c-0.749,6.179 5.329,6.048 2.097,11.264c-0.208,-0.211 -12.699,-10.691 -3.67,0.487c0.11,0.136 0.11,0.118 1.487,1.597c2.669,3.758 2.54,3.855 2.883,4.059c4.775,2.833 3.789,3.721 6.722,8.384c8.254,13.119 -11.063,19.423 -3.823,28.045c5.155,6.139 2.265,7.108 3.567,15.009c0.789,4.789 4.329,5.164 4.868,9.142c1.678,12.383 13.363,3.192 15.945,13.312c2.878,11.276 5.677,11.092 3.342,22.56c-0.218,1.073 -2.671,13.114 -2.814,13.392c-4.615,8.963 -1.132,26.338 -18.983,23.827c-8.087,-1.137 -5.379,-20.737 -11.683,-12.665c-2.825,3.618 -9.232,-3.998 -14.36,0.829c-0.504,2.701 -1.223,2.962 1.234,6.505c2.135,5.456 3.494,7.164 -2.026,9.269c-6.124,2.335 -10.308,-0.999 -17.454,6.197c-5.411,5.449 -8.846,-0.794 -17.7,7.844c-7.1,6.926 -8.52,3.435 -14.672,4.346c-4.656,0.69 -4.286,7.04 -8.929,8.016c-3.042,0.64 -4.645,-0.942 -7.123,4.697c-2.528,5.754 -10.451,1.535 -13.251,4.965c-4.179,5.12 -3.083,7.077 -8.101,7.292c-1.382,0.059 -9.303,-4.667 -14.776,-1.478c-5.011,2.92 -4.897,3.1 -10.778,3.602c-13.575,1.159 -7.549,16.601 -20.844,13.567c-3.444,-0.786 -3.879,0.302 -6.39,-2.381c-0.282,-0.301 -6.309,-3.686 -2.819,4.315c1.258,2.884 3.456,16.213 7.454,18.188c3.04,1.502 7.765,-1.279 9.197,4.256c1.697,6.555 1.61,6.96 7.608,10.226c8.902,4.847 -4.298,17.273 -1.769,22.838c3.236,7.123 5.615,5.865 7.378,13.504c2.95,12.783 8.925,16.516 12.918,23.615c4.795,8.523 13.603,-3.287 16.006,6.286c2.076,8.273 4.495,6.44 10.35,7.014c8.866,0.869 2.285,11.584 15.013,13.407c6.642,0.951 5.507,9.749 11.915,10.115c9.663,0.551 7.438,4.947 15.31,9.503c2.863,1.657 8.491,3.948 7.287,6.518c-6.616,14.124 -11.567,10.6 -13.66,13.408c-4.408,5.916 -0.34,7.304 -3.727,13.955c-2.64,5.184 3.334,12.459 -9.716,11.995c-8.991,-0.319 -7.889,3.359 -16.389,6.057c-5.359,1.701 -1.998,6.185 -7.476,7.486c-4.906,1.165 -5.094,1.204 -7.821,5.396c-2.338,3.594 -3.567,2.417 -5.636,6.293c-2.559,4.794 -11.547,2.827 -5.826,16.253c1.934,4.54 12.155,5.327 12.503,12.158c0.238,4.665 2.406,4.67 0.676,8.994c-2.659,6.644 4.711,12.878 4.901,19.509c0.159,5.554 -6.919,-3.59 -12.371,0.041c-6.769,4.508 -7.099,0.663 -14.992,-1.703c-1.476,-0.442 -3.93,-3.244 -6.05,-3.186c-4.353,0.12 -4.575,0.652 -8.006,-1.986c-6.491,-4.99 -6.742,2.097 -15.987,2.547c-2.765,0.135 -4.233,4.094 -7.477,3.662c-10.587,-1.407 -12.249,-1.8 -17.154,7.674c-0.37,0.715 -0.532,0.741 -9.86,2.001c-1.365,0.184 -9.455,-7.373 -15.085,-1.63c-3.452,3.521 -4.011,2.407 -8.802,3.682c-4.455,1.186 -5.917,5.755 -12,4.68c-3.451,-0.61 -6.472,-2.844 -13.69,-1.005c-0.69,0.176 -0.657,-0.664 -8.884,-0.609c-5.228,0.035 -4.233,-12.098 -16.396,-9.029c-8.805,2.222 -3.204,13.379 -11.865,10.639c-6.19,-1.958 -5.94,0.622 -12.333,2.016c-2.497,0.544 -8.141,11.241 -13.885,5.002c-0.154,-0.167 0.082,-12.034 -8.585,-13.583c-1.623,-0.29 -10.677,-0.775 -11.606,-0.825c-0.703,-0.038 -0.082,-1.249 -7.862,-3.953c-1.794,-0.623 -3.895,-5.116 -10.171,-2.266c-6.271,2.848 -5.851,-5.782 -12.062,-3.072c-7.065,3.082 -6.828,-0.406 -13.824,-3.472c-8.531,-3.739 -7.211,-6.864 -14.951,-7.435c-6.866,-0.507 -7.277,-7.239 -11.686,-4.219c-6.711,4.598 -10.557,0.901 -10.984,7.008c-0.277,3.951 -1.131,5.342 -4.475,3.222c-3.928,-2.491 -3.661,-2.719 -6.917,-3.911c-5.637,-1.247 -5.398,1.263 -4.595,5.179c-5.699,3.835 -9.874,0.916 -13.451,3.602c-11.64,8.741 -13.792,-3.529 -21.752,0.427c-2.172,1.079 -3.02,-2.675 -10.253,-1.952c-3.719,0.372 -2.683,-1.511 -2.048,-5.182c0.989,-5.717 -5.24,-9.547 -4.096,-13.449c2.369,-8.081 1.824,-8.084 2.168,-8.715c4.057,-7.433 2.364,-7.809 1.943,-13.691c-0.45,-6.292 4.619,-4.909 6.028,-16.604c0.697,-5.782 5.551,-7.887 6.288,-11.986c0.845,-4.703 0.964,-4.739 4.567,-7.708c5.724,-4.716 -0.56,-17.329 9.609,-23.157c2.42,-1.387 15.624,-8.955 19.274,-29.048c1.645,-9.057 -9.79,-3.096 -24.737,-14.277c-11.237,-8.405 -17.171,2.168 -26.711,-11.042c-7.137,-9.882 -14.798,2.749 -21.946,-0.748c-7.252,-3.548 -7.263,-3.777 -15.286,-3.119c-8.07,0.662 -5,-3.974 -11.629,-19.047c-1.288,-2.929 -6.126,-0.778 -8.882,-3.263c-7.392,-6.666 -8.249,-5.478 -8.786,-6.147c-5.749,-7.163 -0.33,-8.15 -0.651,-17.378c-0.214,-6.151 18.53,-14.194 0.027,-16.661c-3.562,-0.475 -12.74,-11.091 -17.337,-21.118c-2.343,-5.111 1.598,-20.065 3.994,-23.587c8.282,-12.175 11.312,-8.993 14.106,-12.659c5.356,-7.027 -5.22,-5.974 -7.342,-15.88c-2.241,-10.466 -15.703,-4.78 -11.67,-13.699c3.198,-7.073 2.517,-8.241 -0.058,-16.301c-0.979,-3.064 2.225,-2.769 1.221,-5.886c-1.254,-3.89 -5.263,4.75 -7.363,0.037c-5.136,-11.527 3.564,-16.582 8.665,-20.727c4.712,-3.829 -0.075,-6.303 4.05,-10.722c5.749,-6.16 3.666,-8.191 1.341,-13.848c-2.924,-7.114 5.22,-10.927 2.627,-16.338c-3.458,-7.216 -0.5,-9.038 -6.171,-13.008c-5.398,-3.779 -4.866,-4.504 -4.974,-11.109c-0.019,-1.142 -7.025,-14.454 3.855,-15.635c9.398,-1.021 9.181,-5.694 18.044,-2.396c16.569,6.166 36.685,-6.272 25.999,-14.132c-3.11,-2.288 0.701,-10.508 7.099,-12.417c1.427,-0.426 9.657,-2.88 12.621,-13.689c0.566,-2.065 -1.885,-13.423 -2.068,-13.813c-3.526,-7.488 -9.843,-3.27 -10.571,-2.784c-5.039,3.365 -8.466,-3.177 -5.605,-15.001c2.426,-10.025 12.549,-0.614 18.51,-6.605c0.495,-0.497 5.233,-13.855 5.283,-14.508c0.659,-8.676 6.951,-6.941 6.004,-15.05c-1.218,-10.437 9.451,-11.414 2.245,-18.997c-6.983,-7.348 6.423,-16.874 -5.336,-20.605c-4.906,-1.557 -4.268,-2.516 -5.233,-6.754c-1.432,-6.288 -3.172,-9.041 10.76,-15.68c2.932,-1.397 5.283,-6.18 7.839,-6.461c14.118,-1.553 13.722,-3.288 14.946,-3.36c1.093,-0.064 9.541,-0.559 13.642,1.025c8.042,3.108 8.599,-0.401 13.44,1.624c5.048,2.111 7.078,8.223 7.836,8.692c4.223,2.613 4.641,3.077 3.481,7.926c-1.231,5.141 5.44,8.735 6.076,5.932c0.777,-3.421 0.661,-3.557 3.653,-5.595c11.185,-7.617 12.164,3.751 16.246,2.206c4.452,-1.686 -3.788,-6.96 -4.642,-11.362c-0.876,-4.514 8.363,-5.032 9.202,-5.08c0.324,-0.018 6.007,-2.89 -1.493,-3.766c-7.373,-0.862 -5.681,-11.22 0.073,-12.018c6.306,-0.874 6.266,-1.211 10.887,-5.704c3.146,-3.059 5.643,3.213 10.025,0.897c5.106,-2.699 4.704,1.992 10.546,2.558c6.324,0.613 7.036,1.256 14.016,12.32c2.365,3.749 6.471,1.187 9.483,5.207c4.169,5.564 4.923,4.634 9.287,5.988c0.859,0.267 4.276,5.337 5.911,3.712c0.651,-0.647 2.805,-3.183 -8.441,-7.777c-5.746,-2.347 -3.074,-6.462 -9.215,-7.487c-8.465,-1.412 -8.651,-14.349 -18.037,-15.367c-15.591,-1.691 -7.471,-15.104 -9.264,-18.398c-2.469,-4.539 -3.101,-4.117 -4.775,-8.919c-2.021,-5.799 -20.321,-5.847 -10.446,-12.959c6.322,-4.553 -3.961,-13.841 3.265,-16.369c3.086,-1.08 2.794,-1.387 4.767,-3.862c0.195,-0.244 3.315,-1.396 3.927,-2.001c4.06,-4.017 -1.999,-2.684 -4.75,-6.133c-6.29,-7.886 -5.739,-11.863 -5.584,-12.982c1.154,-8.326 -1.035,-7.923 -5.931,-14.698c-2.862,-3.961 -4.745,-1.758 -6.774,-5.003c-2.635,-4.214 5.829,-5.127 8.515,-5.919c7.328,-2.161 20.919,4.243 25.527,3.033c13.767,-3.615 21.313,6.027 28.502,5.461c1.803,-0.142 18.686,-1.473 21.067,8.204c1.94,7.886 6.436,6.432 5.431,11.925c-1.129,6.177 -2.195,6.163 -8.344,6.81c-4.155,0.437 0.741,4.045 0.671,6.712c-0.106,3.999 1.337,3.886 5.174,2.926c4.731,-1.184 4.635,1.844 13.619,0.695c9.418,-1.204 9.902,11.235 19.29,9.312c6.119,-1.253 6.015,-0.914 12.124,-1.252c0.519,-0.029 12.903,-0.714 5.73,3.051c-9.115,4.783 10.997,6.833 15.536,-11.59c2.375,-9.64 25.621,1.496 11.977,6.547c-3.576,1.324 -6.768,-1.883 -9.966,8.157c-1.063,3.337 3.503,5.107 3.237,10.692c-0.493,10.31 -10.244,11.532 -11.549,11.696c-4.843,0.607 -2.617,4.624 -7.429,5.446c-6.011,1.027 -6.98,8.145 -1.393,5.704c7.501,-3.278 7.538,6.386 14.895,2.74c7.68,-3.805 7.955,-2.828 16.186,-0.941c6.031,1.383 5.221,2.958 9.421,5.054c2.275,1.135 5.234,-2.043 4.824,-5.768c-0.491,-4.46 1.197,-3.869 3.333,-7.752c6.453,-11.729 11.724,-1.426 19.868,-6.221c7.567,-4.455 11.454,1.144 16.441,-4.28c3.441,-3.742 2.889,-4.472 7.812,-5.984c9.874,-3.032 2.225,-11.854 12.044,-14.784c8.419,-2.512 7.431,-8.22 13.267,-5.281c5.606,2.823 10.037,1.071 7.513,6.916c-1.213,2.809 4.459,2.544 7.143,-1.922c5.008,-8.334 5.006,1.628 5.047,1.947c0.079,0.607 0.552,1.604 7.442,-1.782c4.489,-2.206 0.079,-3.743 -0.941,-5.925c-2.533,-5.42 5.299,-7.392 5.436,-7.51c8.902,-7.722 7.39,-9.03 8.2,-9.637c4.416,-3.303 1.441,5.331 4.019,6.269c5.276,1.919 19.785,-15.374 13.873,2.166c-1.696,5.032 -0.168,5.081 -0.068,10.349c0.126,6.66 -4.976,1.183 -10.315,5.228c-6.055,4.588 -4.35,5.648 -3.856,8.362c0.59,3.245 -2.468,7.114 3.481,9.921c3.514,1.658 19.183,17.049 14.354,6.618c-3.576,-7.724 24.417,3.392 27.265,10.476c4.6,11.441 6.18,10.827 6.041,11.885c-0.633,4.796 -2.718,-0.927 -10.396,-1.626Z" style="fill:#2f6f5e;"/><path d="M546.808,633.644c7.598,5.87 4.142,11.507 13.638,11.615c4.127,0.047 5.539,5.968 8.968,5.501c5.352,-0.728 6,-2.794 11.186,1.506c11.412,9.462 17.443,0.213 21.611,1.451c12.176,3.615 2.986,-10.401 13.934,-16.879c5.933,-3.51 3.322,-5.253 4.921,-9.153c0.972,-2.37 6.288,-4.446 6.555,-7.768c0.395,-4.931 -2.126,-16.506 7.914,-13.748c6.057,1.664 24.367,0.887 26.806,2.048c7.724,3.676 17.87,12.434 21.118,12.212c11.896,-0.815 11.91,0.099 22.484,5.559c0.645,0.333 0.639,-0.118 8.82,2.156c0.823,0.229 0.842,0.127 10.601,-1.272c4.255,-0.61 7.282,-9.992 16.658,-7.156c1.518,0.459 2.946,1.176 4.448,1.686c2.913,0.988 9.672,-2.921 12.131,2.981c2.535,6.085 2.113,7.657 8.848,7.799c6.482,0.137 7.527,10.443 5.871,13.215c-6.517,10.911 1.807,13.057 -3.914,24.311c-1.833,3.605 4.254,16.785 7.412,18.624c14.087,8.205 14.404,8.829 14.812,14.13c0.325,4.228 3.308,7.187 -0.729,13.081c-5.011,7.317 -1.347,8.143 -2.096,13.98c-0.487,3.795 -11.646,7.864 -16.538,5.315c-10.439,-5.439 -11.841,2.133 -22.891,-2.201c-2.516,-0.987 -5.165,-4.03 -7.643,4.266c-0.209,0.698 1.116,0.548 0.955,9.059c-0.131,6.951 14.098,2.99 11.086,13.454c-1.849,6.422 -3.216,5.45 -8.78,9.122c-4.983,3.288 0.307,6.258 -2.911,13.498c-7.12,16.018 8.934,23.4 -1.412,27.441c-4.872,1.903 -5.114,0.914 -9.515,3.452c-4.585,2.644 -5.864,-0.903 -9.756,2.548c-5.626,4.989 -4.489,5.791 -9.169,11.703c-3.365,4.251 7.707,18.321 -0.211,16.088c-1.272,-0.359 -2.577,-4.473 -6.197,-5.348c-9.334,-2.257 -9.454,-2.161 -10.093,-1.65c-1.203,0.962 -0.838,1.209 -2.143,2.182c-1.67,1.245 -7.259,0.712 -9.728,2.589c-12.252,9.317 -13.378,8.186 -22.852,5.222c-5.754,-1.8 -16.965,6.237 -20.975,5.605c-9.6,-1.515 -10.413,-0.717 -14.943,6.72c-0.75,1.231 -7.355,4.102 -9.222,7.329c-10.922,18.877 -25.641,5.483 -32.918,5.609c-12.341,0.215 -12.709,2.365 -23.9,-2.765c-12.636,-5.793 -13.081,-3.284 -27.064,-3.271c-4.656,0.004 -15.347,-5.331 -25.546,-5.242c-12.256,0.106 -12.61,1.671 -23.807,-3.633c-1.422,-0.674 -12.417,-3.088 -13.504,-3.326c-2.944,-0.647 -13.355,0.044 -16.388,-2.668c-4.377,-3.914 -4.759,-3.234 -8.916,-7.504c-0.826,-0.849 -2.034,-5.179 -3.887,-6.427c-5.362,-3.61 -8.181,-1.856 -8.139,-8.214c0.006,-0.875 8.135,-13.041 -4.851,-13.362c-5.303,-0.131 -7.895,5.185 -13.624,3.299c-9.719,-3.201 -10.112,-4.63 -19.398,-0.502c-7.934,3.527 -9.393,-2.072 -16.646,2.806c-7.469,5.024 -14.923,-0.462 -18.952,6.46c-3.506,6.024 -4.125,5.671 -10.773,7.59c-2.914,0.841 -7.027,4.897 -13.703,1.376c-3.183,-1.679 -4.177,-8.626 -8.933,-8.844c-4.992,-0.229 -5.224,0.219 -9.074,-3.196c-2.148,-1.906 -6.12,0.089 -7.387,-0.424c-4.265,-1.73 -4.286,-1.897 -8.878,-0.796c-4.485,1.075 -6.458,-4.489 -11.289,2.166c-4.557,6.278 -15.499,-3.571 -15.927,-3.722c-10.017,-3.533 -4.469,-11.965 -13.407,-12.595c-9.741,-0.687 -11.938,-2.355 -9.485,-11.87c0.379,-1.469 5.053,-3.141 4.636,-7.328c-0.073,-0.736 -0.108,-1.079 1.671,-9.096c0.616,-2.776 6.446,-2.888 6.033,-8.956c-0.33,-4.835 -0.086,-7.258 5.972,-5.46c1.223,0.363 10.658,-1.263 10.785,6.943c0.041,2.637 -1.621,5.566 5.634,8.145c9.225,3.279 7.442,-4.872 15.241,-6.673c1.446,-0.334 4.448,-3.345 7.37,-2.405c14.279,4.592 9.565,-5.387 12.737,-9.049c0.713,-0.824 7.63,-2.524 9.479,1.158c3.222,6.415 3.936,6.259 11.011,6.883c4.476,0.395 4.357,0.689 8.872,0.144c4.223,-0.51 13.687,3.448 18.091,0.381c1.143,-0.796 2.124,-1.807 3.247,-2.632c1.821,-1.338 8.39,-1.029 9.827,-2.419c5.156,-4.987 6.135,-4.56 12.44,-1.146c0.718,0.389 13.515,1.752 15.948,-3.103c2.966,-5.918 2.891,-7.278 9.499,-6.95c4.755,0.236 5.531,3.151 10.881,-1.44c2.954,-2.535 4.408,0.347 8.125,-2.472c4.493,-3.407 5.16,-2.968 9.746,0.251c3.031,2.128 6.539,-0.271 8.358,1.011c17.501,12.337 20.904,3.056 24.396,3.673c0.448,0.079 5.668,3.409 8.915,2.534c0.901,-0.243 4.238,-1.141 1.971,-11.498c-0.06,-0.273 -5.938,-6.773 -4.67,-11.868c1.133,-4.553 1.348,-4.53 -0.108,-9.069c-0.491,-1.53 0.292,-6.386 -3.391,-8.404c-11.192,-6.134 -16.319,-9.866 -5.97,-17.389c7.815,-5.681 4.381,-10.284 13.823,-12.648c5.031,-1.26 5.159,-6.85 7.665,-7.64c4.369,-1.378 4.36,-1.236 7.679,-4.289c2.987,-2.748 10.541,0.983 14.468,-2.182c2.275,-1.833 5.535,-1.778 5.492,-7.406c-0.064,-8.431 2.305,-8.101 2.434,-16.449c0.076,-4.926 8.887,-3.535 11.282,-9.209c2.487,-5.893 1.682,-8.923 7.75,-7.159Z" style="fill:#2f6f5e;"/><path d="M169.383,746.307c0.875,0.688 9.125,7.172 12.909,5.202c3.628,-1.889 0.753,-7.603 3.328,-7.984c3.81,-0.564 3.714,-0.575 7.187,-2.278c3.104,-1.522 3.14,2.79 9.357,4.106c4.86,1.029 5.511,-0.098 8.768,3.634c0.108,0.124 14.611,9.43 18.01,8.947c1.182,-0.168 4.983,-3.104 7.161,-1.048c3.836,3.622 4.238,4.33 9.168,2.161c5.496,-2.417 5.039,1.419 10.798,2.965c2.867,0.77 2.563,11.129 1.195,12.282c-5.649,4.758 -5.682,5.016 -6.974,12.242c-0.556,3.107 1.016,3.8 -2.278,6.784c-3.742,3.389 -5.204,14.155 0.617,16.581c7.142,2.977 12.471,1.794 14.196,5.528c2.408,5.212 1.302,6.595 8.429,9.297c3.319,1.258 3.078,6.06 14.694,5.707c5.599,-0.17 4.662,-6.413 9.032,-5.102c3.787,1.136 3.741,1.281 7.503,0.27c8.119,-2.182 5.96,8.005 5.785,8.831c-0.352,1.661 7.957,17.687 -1.194,19.952c-3.496,0.865 -7.116,-4.951 -13.542,-0.304c-0.344,0.249 -5.925,4.285 -5.311,-0.065c0.964,-6.838 -8.121,-3.285 -7.279,4.543c0.406,3.772 -0.675,3.663 -0.223,7.539c0.601,5.158 -6.555,6.344 -1.857,11.535c0.555,0.613 10.606,11.722 4.011,9.522c-3.651,-1.218 -10.71,-16.45 -17.913,-13.661c-6.116,2.368 -5.99,3.816 -12.214,2.194c-2.553,-0.665 -4.3,1.064 -8.343,-4.071c-3.46,-4.396 -4.061,-4.173 -9.462,-3.038c-2.896,0.609 -1.252,-9.159 -5.677,-5.174c-5.055,4.551 -3.974,5.373 -2.925,8.428c0.206,0.601 -1.594,13.916 -6.495,16.391c-1.73,0.874 -5.707,0.323 -6.611,4.603c-1.33,6.298 -2.881,5.79 -3.399,12.193c-0.228,2.815 -4.431,4.294 -2.67,7.157c0.589,0.959 6.133,6.719 2.689,9.822c-5.334,4.806 -0.848,-5.144 -9.177,-11.374c-4.819,-3.604 -2.152,-6.182 -7.528,-9.066c-4.733,-2.539 -4.209,-8.34 -7.316,-6.422c-4.682,2.89 -5.266,3.124 -9.699,-0.245c-3.477,-2.642 -6.658,-0.976 -5.671,-6.416c0.611,-3.371 -2.74,-6.83 -1.449,-8.966c6.456,-10.681 -5.769,-2.387 -7.533,-2.34c-0.96,0.026 -12.682,0.338 -9.675,7.096c3.155,7.09 -8.698,6.344 -13.689,17.998c-2.224,5.192 -0.972,7.311 -6.653,7.499c-5.84,0.193 -6.252,-8.695 -19.196,-1.189c-0.265,0.154 -6.94,7.026 -6.461,2.467c0.01,-0.097 2.063,-4.671 -2.802,-1.469c-10.102,6.648 -10.519,5.995 -22.612,6.863c-10.967,0.787 -2.096,-10.668 -8.996,-12.791c-9.099,-2.798 0.312,-6.323 -0.636,-10.402c-0.835,-3.591 -10.351,4.46 -10.737,-4.79c-0.271,-6.488 -5.415,-9.373 -1.967,-13.387c4.364,-5.08 4.107,-5.323 4.335,-12.095c0.099,-2.942 -1.918,-1.154 -6.355,-3.9c-5.2,-3.218 -5.517,3.535 -19.006,1.661c-5.487,-0.762 -10.173,-2.448 -12.278,6.7c-0.649,2.819 -7.298,7.898 -3.954,8.757c0.967,0.248 2,-0.283 2.99,-0.159c0.6,0.076 0.18,8.241 -6.444,2.068c-4.381,-4.082 -22.818,8.136 -15.739,-1.172c1.037,-1.364 8.287,-6.51 10.938,-11.182c4.516,-7.956 4.908,-9.736 1.853,-9.895c-8.128,-0.421 0.918,-4.167 2.069,-12.313c1.551,-10.981 9.9,-4.666 16.723,-16.132c2.422,-4.069 14.57,-9.995 8.061,-12.033c-0.606,-0.19 -6.761,1.949 -5.816,-1.907c0.345,-1.407 2.733,1.297 14.161,-11.293c1.38,-1.521 6.64,-1.351 9.174,-7.055c3.842,-8.647 7.447,-5.356 13.264,-12.722c2.442,-3.092 4.46,-4.293 0.716,-5.863c-4.553,-1.911 -1.668,-3.344 -0.509,-8.241c0.999,-4.22 3.38,-0.32 8.376,-2.473c5.538,-2.386 6.185,-3.368 10.85,0.568c0.266,0.224 19.997,4.585 22.944,-7.05c1.181,-4.661 1.792,-4.914 6.532,-4.936c5.411,-0.025 5.023,2.637 10.495,1.838c2.865,-0.418 12.458,7.291 20.846,0.027c2.303,-1.994 12.247,-2.621 13.728,-2.874c0.335,0.219 18.477,10.765 4.715,-1.652c-2.358,-2.127 -2.046,-2.405 -1.338,-5.432Z" style="fill:#2f6f5e;"/><path d="M152.504,132.373c5.239,4.796 -2.182,3.059 -2.811,2.729c-5.349,-2.812 -8.785,-0.556 -16.863,-2.228c-6.359,-1.317 -8.65,2.399 -13.383,2.489c-5.293,0.1 -12.976,2.018 -6.999,-2.207c0.206,-0.145 18.818,-4.198 19.158,-4.134c0.824,0.154 9.668,1.803 10.329,1.771c5.54,-0.266 5.493,-0.402 10.568,1.581Z" style="fill:#2f6f5e;"/><path d="M180.842,12.383c2.542,1.313 2.54,1.258 2.927,1.589c0.713,10.662 -1.253,10.744 1.447,21.047c0.061,0.231 0.022,0.22 0.295,2.974l-1.512,1.322c-8.517,-7.67 -2.252,-9.823 -3.659,-22.351c-0.276,-2.454 -0.05,-2.293 0.503,-4.582Z" style="fill:#2f6f5e;"/><path d="M196.275,45.327c8.095,11.622 4.383,13.587 2.889,12.958c-6.65,-2.8 -12.57,-35.094 -2.889,-12.958Z" style="fill:#2f6f5e;"/><path d="M509.878,73.195c2.326,-1.553 2.6,-1.326 3.424,-4.019c1.001,-3.274 5.488,0.273 6.414,1.911c4.227,7.479 -17.117,11.352 -9.838,2.108Z" style="fill:#2f6f5e;"/><path d="M536.416,115.81c-0.276,0.405 -1.182,-0.209 -1.458,0.196c-0.135,0.199 -0.028,0.221 -0.382,2.98c-0.693,-0.5 -2.622,-2.113 -2.846,-2.301c-2.194,-1.835 -2.941,-0.556 -2.797,2.297c0.11,2.159 0.852,1.71 3.086,3.301c-0.642,1.035 -1.284,2.07 -1.927,3.105c-5.723,-4.263 -1.736,-6.461 -5.332,-12.603c-2.912,-4.973 4.627,-1.767 11.655,3.026Z" style="fill:#2f6f5e;"/><path d="M96.794,144.288c-8.11,5.545 -5.491,-1.961 -5.198,-2.31c0.639,-0.76 1.404,-1.67 11.341,-5.048c2.358,-0.802 4.286,1.863 -0.241,4.086c-3.157,1.55 -3.139,1.263 -5.902,3.272Z" style="fill:#2f6f5e;"/><path d="M169.395,743.776l-0.012,2.531c-0.707,3.026 -1.019,3.304 1.338,5.432c13.762,12.418 -4.38,1.871 -4.715,1.652c-0.388,-2.302 -0.256,-2.183 -1.206,-4.435c-0.803,-3.916 -1.042,-6.426 4.595,-5.179Z" style="fill:#2f6f5e;"/><path d="M182.604,9.467c0.126,-0.723 2.554,-14.677 5.497,-7.343c1.501,3.74 -2.26,8.172 -2.733,8.73c-0.403,-0.252 -1.019,0.34 -1.421,0.089c-0.135,-0.085 0,0 -1.343,-1.475Z" style="fill:#2f6f5e;"/><path d="M497.312,36.314c-0.324,0.289 -20.849,17.421 -5.394,0.561c0.293,-0.32 10.158,-11.081 5.394,-0.561Z" style="fill:#2f6f5e;"/><path d="M466.075,58.077c-11.228,-2.021 4.336,-6.226 4.858,-3.873c0.823,3.706 -1.145,2.741 -4.858,3.873Z" style="fill:#2f6f5e;"/><path d="M534.576,118.986c-0.353,2.257 -0.386,2.397 -2.557,3.296c-2.234,-1.591 -2.976,-1.141 -3.086,-3.301c-0.145,-2.852 0.602,-4.131 2.797,-2.297c0.225,0.188 2.153,1.801 2.846,2.301Z" style="fill:#2f6f5e;"/><path d="M363.695,102.262c3.174,-1.91 4.76,-2.012 4.82,1.708c0.034,2.106 -9.189,4.477 -4.82,-1.708Z" style="fill:#2f6f5e;"/><path d="M564.486,409.753c0.85,0.286 1.076,1.594 1.926,1.879c1.011,0.339 2.218,-0.585 3.195,-0.159c0.452,0.197 1.422,1.094 -3.887,4.785c-2.457,-3.543 -1.738,-3.804 -1.234,-6.505Z" style="fill:#2f6f5e;"/><path d="M26.471,397.515c-7.75,-2.693 -2.024,-4.963 -1.622,-4.877c3.503,0.752 3.899,2.013 1.622,4.877Z" style="fill:#2f6f5e;"/><path d="M74.442,151.925c-2.203,-1.289 -3.938,-1.765 -1.687,-3.14c2.878,-1.758 6.214,0.424 5.603,1.538c-0.695,1.268 -2.351,1.082 -3.916,1.601Z" style="fill:#2f6f5e;"/><path d="M311.263,87.596c0.185,-2.509 -0.819,-3.71 1.702,-3.65c2.16,0.051 4.108,7.234 -1.702,3.65Z" style="fill:#2f6f5e;"/><path d="M192.323,92.004c-0.478,0.379 -0.205,1.318 -0.683,1.697c-2.455,1.948 -5.079,-3.676 -1.804,-3.889c1.059,-0.069 1.628,0.433 1.737,0.529c0.729,0.642 -0.025,0.98 0.75,1.663Z" style="fill:#2f6f5e;"/><path d="M581.005,281.774c-0.728,0.695 -1.455,1.389 -2.183,2.084c-1.377,-1.478 -1.378,-1.461 -1.487,-1.597c-9.029,-11.179 3.462,-0.698 3.67,-0.487Z" style="fill:#2f6f5e;"/><path d="M158.71,134.452c7.465,0.11 2.931,3.631 2.575,3.68c-0.217,0.03 -0.176,-0.101 -2.379,-1.368c-0.066,-0.771 -0.131,-1.541 -0.197,-2.312Z" style="fill:#2f6f5e;"/><path d="M182.604,9.467c1.343,1.475 1.207,1.39 1.343,1.475c0.403,0.252 1.019,-0.34 1.421,-0.089l-1.6,3.119c-0.386,-0.331 -0.385,-0.276 -2.927,-1.589c0.587,-0.972 1.175,-1.944 1.762,-2.916Z" style="fill:#2f6f5e;"/><path d="M181.49,60.574c-6.018,4.518 -2.427,-2.128 -2.149,-2.151c1.1,-0.093 1.576,0.384 1.675,0.482c0.713,0.714 -0.197,0.997 0.474,1.668Z" style="fill:#2f6f5e;"/><path d="M270.841,882.481c1.376,-1.918 1.283,-2.082 1.486,-2.072c0.356,0.018 1.69,1.31 1.8,2.089c0.744,5.286 -3.127,0.192 -3.286,-0.017Z" style="fill:#2f6f5e;"/><path d="M86.7,158.444c2.602,0.157 4.059,0.345 2.546,2.385c-0.166,0.224 -3.673,3.55 -2.546,-2.385Z" style="fill:#2f6f5e;"/><path d="M334.03,51.692c2.046,1.107 3.567,1.603 1.47,2.879c-0.707,0.43 -2.59,-0.68 -2.549,-1.551c0.027,-0.57 1.053,-0.758 1.079,-1.328Z" style="fill:#2f6f5e;"/><path d="M185.51,37.993c-0.019,1.63 1.652,2.513 -0.028,2.475c-1.051,-0.024 -0.398,-1.128 -1.484,-1.153l1.512,-1.322Z" style="fill:#2f6f5e;"/><path d="M158.71,134.452c0.066,0.771 0.131,1.541 0.197,2.312c-1.222,-1.73 -3.499,-1.255 -1.946,-2.754c0.433,-0.418 1.317,0.861 1.75,0.443Z" style="fill:#2f6f5e;"/></g></svg>